<?xml version="1.0" encoding="utf-8"?>
<!-- Generator: Adobe Illustrator 16.0.0, SVG Export Plug-In . SVG Version: 6.00 Build 0)  -->
<!DOCTYPE svg PUBLIC "-//W3C//DTD SVG 1.1//EN" "http://www.w3.org/Graphics/SVG/1.1/DTD/svg11.dtd">
<svg version="1.1" id="Layer_1" xmlns="http://www.w3.org/2000/svg" xmlns:xlink="http://www.w3.org/1999/xlink" x="0px" y="0px"
	 width="400px" height="180px" viewBox="0.5 0.5 400 180" enable-background="new 0.5 0.5 400 180" xml:space="preserve">
<g>
	<path fill="#1B1B17" d="M80.065,154.93c-1.085,0.241-2.701,0.391-4.377,0.482c0-0.135,0.001-0.229,0.001-0.264l-2.245-0.053
		c-0.001,0.012-0.003,0.159-0.004,0.407c-2.531,0.076-4.7,0.048-4.741,0.046l0.015,2.021c0.169,0.002,2.234,0.027,4.708-0.043
		c-0.043,3.969-0.16,11.576-0.455,13.434l2.225,0.329c0.321-2.015,0.438-9.888,0.479-13.853c1.863-0.1,3.713-0.266,4.98-0.549
		L80.065,154.93z"/>
	<path fill="#1B1B17" d="M84.045,168.064l-0.578,3.871l1.925,0.287l0.628-4.211c1.31-0.099,2.616-0.283,3.752-0.494
		c0.411-0.076,0.789-0.154,1.146-0.229c0.449,1.536,0.764,3.017,0.824,4.282l1.946-0.09c-0.066-1.397-0.398-3-0.872-4.642
		c0.254-0.065,0.42-0.116,0.457-0.126l-0.474-1.665c-0.01,0.002-0.194,0.054-0.502,0.136c-1.7-5.045-4.357-9.99-4.518-10.287
		l-1.819,0.319l-1.662,11.138c-0.261,0-0.52-0.008-0.77-0.023l-0.105,1.729C83.624,168.072,83.836,168.061,84.045,168.064z
		 M86.281,166.264l1.153-7.719c0.896,1.87,2.059,4.475,2.955,7.082C89.22,165.873,87.758,166.129,86.281,166.264z"/>
	<polygon fill="#1B1B17" points="97.77,166.896 98.146,166.869 98.807,166.812 	"/>
	<path fill="#1B1B17" d="M103.756,155.469c-1.409-0.037-2.621,0.424-3.61,1.367c-0.267,0.254-0.502,0.536-0.715,0.834
		c-0.062-0.834-0.106-1.391-0.113-1.479l-0.724,0.051l-1.545,0.129c0.016,0.199,0.223,2.791,0.43,5.816
		c0.241,3.506,0.353,5.44,0.428,9.271l2.276-0.044c-0.062-3.188-0.151-5.089-0.316-7.628c0.033-1.057,0.42-3.944,1.846-5.305
		c0.545-0.521,1.2-0.762,1.985-0.744c0.499,0.016,0.908,0.215,1.281,0.627c1.555,1.72,2.138,6.65,1.607,13.533l2.268,0.177
		c0.604-7.828-0.13-12.954-2.184-15.233C105.882,155.975,104.876,155.497,103.756,155.469z"/>
	<path fill="#1B1B17" d="M116.178,164.846l7.705-5.084l-1.253-1.9l-7.374,4.871c0.053-4.5,0.051-9.172,0.05-10.082h-2.274
		c0,6.66-0.08,17.095-0.302,18.547l2.248,0.346c0.094-0.618,0.161-2.391,0.208-4.616c3.742,2.56,4.653,4.294,4.661,4.314
		l2.058-0.976C121.788,170.008,120.69,167.863,116.178,164.846z"/>
	<polygon fill="#1B1B17" points="21.48,169.898 21.59,154.759 19.517,154.744 19.392,171.984 27.703,171.939 27.691,169.868 	"/>
	<path fill="#1B1B17" d="M34.135,156.561l0.005,0.037c-2.261,0.414-4.623,2.976-4.673,6.398c-0.045,3.109-0.116,7.809,4.725,8.811
		c0.376,0.082,0.747,0.108,1.106,0.094c0.866-0.041,1.681-0.352,2.396-0.922c2.472-1.981,3.071-6.41,3.094-7.951
		c0.022-1.607-0.888-3.452-2.379-4.812C37.094,157.014,35.539,156.411,34.135,156.561z M36.398,169.357
		c-0.535,0.43-1.099,0.562-1.783,0.42c-2.938-0.608-3.128-3.182-3.075-6.75c0.037-2.601,1.893-4.344,3.161-4.414
		c0.731,0.043,1.556,0.441,2.311,1.132c1.034,0.942,1.719,2.25,1.704,3.251C38.688,164.838,37.933,168.129,36.398,169.357z"/>
	<path fill="#1B1B17" d="M53.389,164.65l-6.231,0.785l0.258,2.057l4.439-0.559c0.036,0.732-0.195,1.479-0.671,2.107
		c-0.514,0.677-1.126,0.958-1.499,0.938c-0.842-0.049-1.916-0.203-2.749-0.984c-1.104-1.032-1.584-2.951-1.428-5.706
		c0.332-5.804,3.619-5.788,3.956-5.767l2.235,0.237l0.219-2.061l-2.261-0.239c-0.082-0.009-1.975-0.143-3.669,1.334
		c-1.524,1.328-2.382,3.477-2.547,6.377c-0.194,3.395,0.505,5.863,2.082,7.335c1.336,1.25,2.95,1.478,4.047,1.54
		c0.097,0.008,0.196,0.008,0.295,0.002c1.071-0.048,2.163-0.688,2.973-1.753c1.071-1.413,1.381-3.222,0.828-4.843L53.389,164.65z"/>
	<path fill="#1B1B17" d="M65.277,169.559c-0.892,0.058-1.817,0.112-2.697,0.156c-0.272-3.986-0.578-8.925-0.717-11.943
		c1.312-0.082,2.37-0.16,2.467-0.17l-0.157-2.063c-0.023,0.002-1.072,0.079-2.378,0.164c-0.002-0.283,0-0.502,0.011-0.604
		l-2.046-0.312c-0.027,0.167-0.033,0.524-0.026,1.03c-1.106,0.051-2.135,0.084-2.688,0.055l-0.115,2.068
		c0.598,0.033,1.641,0.004,2.76-0.047c0.036-0.002,0.073-0.004,0.111-0.006c0.148,3.448,0.502,8.854,0.71,11.92
		c-1.121,0.039-1.959,0.047-2.2,0.004l-0.45,2.025c0.521,0.116,2.269,0.072,4.042-0.009c1.327-0.062,2.669-0.144,3.512-0.2
		L65.277,169.559z"/>
	<g>
		<path fill="#1B1B17" d="M150.078,154.264l-4.377,16.887l2.056,0.529l1.131-4.367c1.567-0.336,4.14-0.834,5.783-0.949l1.519,3.822
			l1.974-0.785l-6.071-15.262L150.078,154.264z M149.483,165.016l1.837-7.076l2.534,6.365
			C152.426,164.457,150.75,164.762,149.483,165.016z"/>
		<path fill="#1B1B17" d="M162.617,154.209l-1.478-0.135l0.049,11.205l-0.229,6.25l0.854,0.197c0.927,0.217,1.756,0.316,2.488,0.305
			c1.033-0.018,1.87-0.264,2.536-0.736c0.856-0.605,1.361-1.545,1.499-2.787c0.088-0.787-0.133-1.533-0.646-2.158
			c-0.261-0.318-0.59-0.596-0.954-0.826c1.738-0.754,3.227-2.099,3.433-4.373C170.69,155.346,165.069,154.555,162.617,154.209z
			 M165.612,169.562c-0.354,0.248-1.063,0.471-2.466,0.258l0.124-3.323c1.035,0.194,2.286,0.596,2.777,1.198
			c0.152,0.184,0.204,0.355,0.179,0.574C166.126,169.198,165.738,169.471,165.612,169.562z M168.055,160.959
			c-0.224,2.466-3.146,3.074-4.747,3.229l-0.032-7.727C166.521,157.023,168.318,158.049,168.055,160.959z"/>
		<path fill="#1B1B17" d="M138.605,168.955c-0.102-4.033-0.39-12.748-0.972-14.066l-1.952,0.844
			c0.337,0.916,0.684,8.041,0.827,14.398l0.026,1.126l7.343-0.596l-0.172-2.118L138.605,168.955z"/>
		<path fill="#1B1B17" d="M177.379,163.445c-0.124-0.072-0.239-0.135-0.334-0.199l-0.214-0.137
			c-0.855-0.533-2.024-1.268-2.119-3.062c-0.078-1.456,1.734-1.706,2.028-1.741c0.365-0.062,1.61-0.127,2.088,1.735l2.058-0.53
			c-0.809-3.127-3.268-3.521-4.505-3.3c-1.404,0.161-3.938,1.179-3.789,3.946c0.152,2.896,2.15,4.146,3.107,4.75l0.188,0.119
			c0.131,0.082,0.274,0.166,0.429,0.258c0.999,0.576,1.706,1.086,1.672,2.357c-0.008,0.282-0.261,0.48-0.475,0.598
			c-0.564,0.31-1.388,0.326-1.863,0.035c-0.2-0.121-0.46-0.355-0.446-0.98l-2.128-0.054c-0.032,1.239,0.487,2.252,1.464,2.845
			c0.591,0.362,1.308,0.535,2.039,0.521c0.669-0.01,1.347-0.178,1.949-0.504c0.981-0.537,1.557-1.416,1.581-2.412
			C180.181,165.064,178.357,164.012,177.379,163.445z"/>
	</g>
</g>
<path fill="#231F20" d="M193.5,90.854h-81.96v2.826h7.455c0.483,2.795,1.656,10.313,1.792,17.988l2.825-0.049
	c-0.086-4.901,0.298-9.692,0.708-13.282l56.91,0.259c0.361,2.975,0.583,7.331,0.339,13.621l2.823,0.11
	c0.442-11.384,1.046-16.619,1.347-18.647h7.761V90.854z"/>
<path fill="none" stroke="#231F20" stroke-width="1.3405" stroke-miterlimit="10" d="M122.273,104.479
	c-0.001-0.19-0.075,33.703-0.075,33.703s-2.965,0-2.965,3.452"/>
<path fill="none" stroke="#231F20" stroke-width="1.3405" stroke-miterlimit="10" d="M182.981,108l0.785,30.146
	c0,0,3.841-0.392,3.841,2.316"/>
<path fill="none" stroke="#231F20" stroke-width="0.8378" stroke-miterlimit="10" d="M120.754,118.96c0,0,56.196-0.313,64.18,0"/>
<line fill="none" stroke="#231F20" stroke-width="0.8378" stroke-miterlimit="10" x1="122.241" y1="118.952" x2="181.23" y2="98.596"/>
<line fill="none" stroke="#231F20" stroke-width="0.8378" stroke-miterlimit="10" x1="183.265" y1="118.916" x2="124.32" y2="98.337"/>
<circle fill="#231F20" cx="122.187" cy="140.887" r="2.672"/>
<circle fill="#231F20" cx="184.457" cy="141.148" r="2.883"/>
<path fill="none" stroke="#231F20" stroke-width="0.1929" stroke-miterlimit="10" d="M17.56,33.176"/>
<path fill="none" stroke="#231F20" stroke-width="0.5027" stroke-miterlimit="10" d="M25.138,60.934
	c0.616,2.209,0.851,4.723-0.972,8.732c-1.823,4.009-3.555,7.006,0.172,10.836"/>
<path fill="#FFFFFF" stroke="#231F20" stroke-width="0.5027" stroke-miterlimit="10" d="M23.918,77.951l-2.17,1.103l3.549,6.631
	l1.705-0.857C27.001,84.828,24.795,79.658,23.918,77.951z"/>
<g>
	<path fill="#231F20" d="M22.938,86.12c0,0,1.515-9.124,13.616-9.084c8.449-7.03,15.087,1.642,15.087,1.642s4.658-3.113,9.285,1.492
		c3.029,2.838,3.104,5.423,3.104,5.423"/>
	<path fill="none" stroke="#FFFFFF" stroke-width="1.3405" stroke-miterlimit="10" d="M46.865,83.047c0,0,1.434-3.944,2.269-4.966"
		/>
	<path fill="none" stroke="#FFFFFF" stroke-width="1.3405" stroke-miterlimit="10" d="M45.561,78.276
		c1.335,0.597,4.728,3.752,4.728,3.752"/>
	<path fill="none" stroke="#FFFFFF" stroke-width="0.3351" stroke-miterlimit="10" d="M59.828,81.646
		c-1.155-0.064-1.523,0.698,0.102,1.489C61.554,83.925,60.982,81.712,59.828,81.646z"/>
	<path fill="none" stroke="#FFFFFF" stroke-width="0.6703" stroke-miterlimit="10" d="M30.911,83.432c0,0,1.4,0.276,3.203-0.214"/>
	<path fill="none" stroke="#FFFFFF" stroke-width="0.8378" stroke-miterlimit="10" d="M53.312,79.087c0,0,2.819,1.665,5.403,1.055"
		/>
</g>
<path fill="none" stroke="#231F20" stroke-width="0.8378" stroke-miterlimit="10" d="M21.503,59.826c0,0,0.178,5.253,4.871,9.15
	c4.693,3.898,4.636,3.89,4.992,7.207"/>
<path fill="#FFFFFF" stroke="#231F20" stroke-width="0.5788" stroke-miterlimit="10" d="M54.91,61.25
	c0.792,3.418-0.984,17.173-0.984,17.173s0.595,0.526,2.173,0.875c1.578,0.349,2.376,0.014,2.376,0.014s1.817-8.409,1.843-17.263
	L54.91,61.25z"/>
<path fill="none" stroke="#231F20" stroke-width="0.5788" stroke-miterlimit="10" d="M53.589,74.008c0,0,2.606,0.618,6.82,0.948"/>
<path fill="none" stroke="#231F20" stroke-width="0.5788" stroke-miterlimit="10" d="M53.767,71.383c0,0,2.348,1.15,6.769,0.905"/>
<path fill="none" stroke="#231F20" stroke-width="0.5788" stroke-miterlimit="10" d="M53.882,68.315c0,0,3.419,0.827,6.742,0.815"/>
<path fill="none" stroke="#231F20" stroke-width="0.5788" stroke-miterlimit="10" d="M54.235,64.998c0,0,3.685,1.364,6.248,0.945"/>
<path fill="#231F20" d="M62.383,23.006l4.335-10.493L55.773,13.44l-0.96-3.605l-38.051,7.204l1.763,4.48
	c-2.398,3.117-7.556,17.748-3.196,36.904l2.749,0.005l0.349,1.299l1.345-0.012l0.736,1.842l2.123-0.311l0.227-0.961
	c0.475,0.693,1.038,1.496,1.139,1.568c0.18,0.129,2.344-0.44,2.344-0.44l0.126-1.757l1.238-0.011l23.801-0.138l0.066,0.629
	c0,0,0.501,0.135,1.314,0.336l-0.013,2.276c0,0,3.682,1.322,9.539,1.354l0.01-1.908c0.589,0.035,1.124,0.039,1.578,0.001L64.071,60
	l1.604-0.758l0.056-0.731l2.266,0.004C67.998,58.515,70.323,33.02,62.383,23.006z"/>
<path fill="#FFFFFF" d="M61.841,57.354c0,0,1.496-15.145-5.805-21.722c-7.301-6.577-20.752-6.168-24.628,3.005
	c-3.875,9.173-2.701,19.197-2.701,19.197L61.841,57.354z"/>
<polygon fill="#231F20" points="6.612,85.405 78.39,85.399 78.751,102.727 67.439,105.205 67.571,123.833 57.047,124.686 
	52.687,109.63 35.926,109.898 32.751,128.168 19.893,127.479 19.247,105.754 7.354,104.135 "/>
<path fill="#FFFFFF" d="M33.288,86.833l25.867,0.294c0,0-3.023,5.686-10.853,5.553C40.474,92.545,34.896,89.458,33.288,86.833z"/>
<path fill="none" stroke="#231F20" stroke-width="0.5788" stroke-miterlimit="10" d="M53.533,75.886c0,0,2.72,1.415,5.89,1.164"/>
<path fill="#FFFFFF" stroke="#231F20" stroke-width="0.5027" stroke-miterlimit="10" d="M32.616,74.732l-1.35,0.285l-1.255,0.126
	c0,0,0.851,5.729,0.98,7.116c0,0,0.522,0.196,1.096,0.214c0.574,0.019,1.35-0.239,1.35-0.239S33.327,77.08,32.616,74.732z"/>
<path fill="none" stroke="#FFFFFF" stroke-width="0.8378" stroke-miterlimit="10" d="M62.105,31.649c0,0-0.572,1.857,1.292,3.258"/>
<path fill="none" stroke="#231F20" stroke-width="0.8378" stroke-miterlimit="10" d="M71.72,29.946c0,0,8.489-3.9,8.627,10.87
	c0.138,14.77-6.959,94.958,28.295,100.417c35.255,5.461,34.98-9.481-12.091-3.393c-47.072,6.092,20.842,1.954,32.99,4.299
	c12.147,2.346-1.391-7.754-33.273-3.394c-31.881,4.358,48.317,14.298,50.734-5.028c2.417-19.324-0.581-41.168-1.725-47.597"/>
<polygon fill="#FFFFFF" stroke="#231F20" stroke-width="0.5027" stroke-miterlimit="10" points="69.762,29.404 72.928,28.867 
	73.301,30.582 70.571,31.514 "/>
<path fill="#FFFFFF" stroke="#231F20" stroke-width="0.5027" stroke-miterlimit="10" d="M71.807,31.792c0,0-0.562-0.732-0.841-1.437
	c-0.279-0.705-0.402-1.669-0.402-1.669l-7.371,2.744c0,0-0.455,0.817-0.134,1.604c0.32,0.787,0.932,1.242,0.932,1.242L71.807,31.792
	z"/>
<path fill="#231F20" d="M118.919,48.022c0,0-1.884,17.271,0,39.251l4.762,0.174l0.569,4.019h49.331l0.392-3.513l5.45-0.575
	l0.837-37.788c0,0-34.445-1.442-34.436-1.442C145.833,48.149,122.789,47.681,118.919,48.022z"/>
<polygon fill="none" stroke="#FFFFFF" stroke-width="0.5231" stroke-miterlimit="10" points="176.292,59.333 162.788,59.107 
	162.883,54.952 176.334,55.744 "/>
<polygon id="indicator" fill="none" stroke="#FFFFFF" stroke-width="0.5027" stroke-miterlimit="10" points="176.501,66.111 
	162.69,65.714 162.756,62.5 176.578,62.657 "/>
<polygon fill="#FFFFFF" points="176.128,73.164 162.916,72.903 162.956,69.083 176.171,68.925 "/>
<g>
	<path fill="#FFFFFF" d="M158.412,82.622c-15.157,0.854-22.499,0.682-36.315,0.274c-1.014-10.085-0.809-21.385,0.186-31.458
		c11.999-0.374,34.227,0,36.56,0.613C159.03,54.456,159.52,62.734,158.412,82.622z"/>
</g>
<path fill="none" stroke="#FFFFFF" stroke-width="0.5027" stroke-miterlimit="10" d="M165.919,78.082c0,0-2.721,1.413-0.465,3.712
	C168.307,83.459,169.235,77.365,165.919,78.082z"/>
<path fill="#FFFFFF" d="M172.984,78.082c0,0-2.721,1.413-0.465,3.712C175.372,83.459,176.301,77.365,172.984,78.082z"/>
<path fill="#231F20" d="M125.616,59.895l-0.956-0.73l1.595-2.087l-1.589-1.52l0.831-0.868c2.124,1.735,2.365,2.262,2.365,2.262
	S127.515,57.556,125.616,59.895z"/>
<path id="cursor" fill="#231F20" d="M134.187,60.043c-1.839,0.153-3.741,0.002-3.741,0.002s-0.125-2.843-0.002-5.657
	c2.302-0.163,3.739-0.002,3.739-0.002S134.293,58.515,134.187,60.043z"/>
<path fill="none" stroke="#231F20" stroke-width="0.1621" stroke-miterlimit="10" d="M169.425,74.124"/>
<path fill="#231F20" d="M44.002,46.746c0-2.102-1.704-3.806-3.805-3.806c-2.101,0-3.805,1.704-3.805,3.806
	c0,1.542,0.918,2.869,2.237,3.467l0.229,3.243l2.662,0.086l0.241-3.327C43.082,49.619,44.002,48.291,44.002,46.746z"/>
<path fill="none" stroke="#231F20" stroke-width="1.6756" stroke-miterlimit="10" d="M40.19,51.645c0,0-0.321,46.517,8.944,69.541
	c9.266,23.022,16.534,21.996,70.6,17.401c29.22-4.872,32.248-50.168,32.248-50.168"/>
<g>
	<path fill="#1B1B17" d="M280.064,154.93c-1.084,0.241-2.701,0.391-4.377,0.482c0-0.135,0.002-0.229,0.002-0.264l-2.246-0.053
		c0,0.012-0.002,0.159-0.004,0.407c-2.53,0.076-4.699,0.048-4.74,0.046l0.015,2.021c0.169,0.002,2.234,0.027,4.708-0.043
		c-0.043,3.969-0.16,11.576-0.455,13.434l2.225,0.329c0.322-2.015,0.438-9.888,0.479-13.853c1.863-0.1,3.713-0.266,4.979-0.549
		L280.064,154.93z"/>
	<path fill="#1B1B17" d="M284.045,168.064l-0.578,3.871l1.926,0.287l0.627-4.211c1.311-0.099,2.617-0.283,3.752-0.494
		c0.412-0.076,0.789-0.154,1.146-0.229c0.449,1.536,0.764,3.017,0.824,4.282l1.945-0.09c-0.065-1.397-0.397-3-0.871-4.642
		c0.254-0.065,0.42-0.116,0.457-0.126l-0.475-1.665c-0.01,0.002-0.193,0.054-0.502,0.136c-1.699-5.045-4.357-9.99-4.518-10.287
		l-1.819,0.319l-1.662,11.138c-0.261,0-0.521-0.008-0.771-0.023l-0.104,1.729C283.624,168.072,283.836,168.061,284.045,168.064z
		 M286.281,166.264l1.152-7.719c0.896,1.87,2.06,4.475,2.955,7.082C289.221,165.873,287.758,166.129,286.281,166.264z"/>
	<polygon fill="#1B1B17" points="297.77,166.896 298.146,166.869 298.807,166.812 	"/>
	<path fill="#1B1B17" d="M303.756,155.469c-1.408-0.037-2.621,0.424-3.609,1.367c-0.268,0.254-0.502,0.536-0.715,0.834
		c-0.062-0.834-0.106-1.391-0.113-1.479l-0.725,0.051l-1.545,0.129c0.016,0.199,0.223,2.791,0.43,5.816
		c0.242,3.506,0.354,5.44,0.429,9.271l2.276-0.044c-0.062-3.188-0.151-5.089-0.316-7.628c0.033-1.057,0.42-3.944,1.846-5.305
		c0.545-0.521,1.2-0.762,1.985-0.744c0.499,0.016,0.907,0.215,1.28,0.627c1.556,1.72,2.139,6.65,1.607,13.533l2.268,0.177
		c0.604-7.828-0.129-12.954-2.184-15.233C305.882,155.975,304.876,155.497,303.756,155.469z"/>
	<path fill="#1B1B17" d="M316.178,164.846l7.705-5.084l-1.253-1.9l-7.374,4.871c0.053-4.5,0.051-9.172,0.051-10.082h-2.274
		c0,6.66-0.08,17.095-0.302,18.547l2.248,0.346c0.094-0.618,0.16-2.391,0.207-4.616c3.742,2.56,4.653,4.294,4.662,4.314l2.057-0.976
		C321.788,170.008,320.689,167.863,316.178,164.846z"/>
	<polygon fill="#1B1B17" points="221.48,169.898 221.59,154.759 219.518,154.744 219.393,171.984 227.703,171.939 227.691,169.868 	
		"/>
	<path fill="#1B1B17" d="M234.135,156.561l0.006,0.037c-2.262,0.414-4.623,2.976-4.674,6.398c-0.045,3.109-0.115,7.809,4.725,8.811
		c0.377,0.082,0.748,0.108,1.106,0.094c0.866-0.041,1.681-0.352,2.396-0.922c2.473-1.981,3.072-6.41,3.095-7.951
		c0.022-1.607-0.888-3.452-2.379-4.812C237.094,157.014,235.539,156.411,234.135,156.561z M236.398,169.357
		c-0.535,0.43-1.1,0.562-1.783,0.42c-2.938-0.608-3.129-3.182-3.075-6.75c0.037-2.601,1.894-4.344,3.161-4.414
		c0.73,0.043,1.556,0.441,2.311,1.132c1.034,0.942,1.719,2.25,1.704,3.251C238.688,164.838,237.934,168.129,236.398,169.357z"/>
	<path fill="#1B1B17" d="M253.389,164.65l-6.23,0.785l0.258,2.057l4.439-0.559c0.035,0.732-0.195,1.479-0.672,2.107
		c-0.514,0.677-1.125,0.958-1.498,0.938c-0.843-0.049-1.916-0.203-2.75-0.984c-1.104-1.032-1.584-2.951-1.428-5.706
		c0.332-5.804,3.619-5.788,3.956-5.767l2.235,0.237l0.219-2.061l-2.261-0.239c-0.082-0.009-1.976-0.143-3.669,1.334
		c-1.524,1.328-2.383,3.477-2.547,6.377c-0.194,3.395,0.504,5.863,2.082,7.335c1.336,1.25,2.949,1.478,4.047,1.54
		c0.097,0.008,0.195,0.008,0.295,0.002c1.07-0.048,2.162-0.688,2.973-1.753c1.071-1.413,1.381-3.222,0.828-4.843L253.389,164.65z"/>
	<path fill="#1B1B17" d="M265.277,169.559c-0.893,0.058-1.817,0.112-2.697,0.156c-0.271-3.986-0.578-8.925-0.717-11.943
		c1.312-0.082,2.369-0.16,2.467-0.17l-0.157-2.063c-0.022,0.002-1.071,0.079-2.378,0.164c-0.002-0.283,0-0.502,0.012-0.604
		l-2.047-0.312c-0.027,0.167-0.033,0.524-0.025,1.03c-1.106,0.051-2.135,0.084-2.688,0.055l-0.114,2.068
		c0.598,0.033,1.641,0.004,2.76-0.047c0.035-0.002,0.072-0.004,0.11-0.006c0.148,3.448,0.503,8.854,0.71,11.92
		c-1.121,0.039-1.959,0.047-2.199,0.004l-0.451,2.025c0.521,0.116,2.27,0.072,4.043-0.009c1.326-0.062,2.669-0.144,3.512-0.2
		L265.277,169.559z"/>
	<g>
		<path fill="#1B1B17" d="M350.078,154.264l-4.377,16.887l2.056,0.529l1.132-4.367c1.566-0.336,4.139-0.834,5.782-0.949l1.519,3.822
			l1.975-0.785l-6.071-15.262L350.078,154.264z M349.482,165.016l1.838-7.076l2.533,6.365
			C352.426,164.457,350.75,164.762,349.482,165.016z"/>
		<path fill="#1B1B17" d="M362.617,154.209l-1.479-0.135l0.049,11.205l-0.229,6.25l0.854,0.197c0.928,0.217,1.756,0.316,2.488,0.305
			c1.033-0.018,1.87-0.264,2.536-0.736c0.856-0.605,1.361-1.545,1.499-2.787c0.088-0.787-0.133-1.533-0.646-2.158
			c-0.26-0.318-0.59-0.596-0.953-0.826c1.738-0.754,3.227-2.099,3.433-4.373C370.689,155.346,365.068,154.555,362.617,154.209z
			 M365.611,169.562c-0.354,0.248-1.062,0.471-2.465,0.258l0.123-3.323c1.035,0.194,2.287,0.596,2.777,1.198
			c0.152,0.184,0.204,0.355,0.18,0.574C366.126,169.198,365.738,169.471,365.611,169.562z M368.055,160.959
			c-0.224,2.466-3.146,3.074-4.746,3.229l-0.033-7.727C366.521,157.023,368.318,158.049,368.055,160.959z"/>
		<path fill="#1B1B17" d="M338.605,168.955c-0.103-4.033-0.391-12.748-0.973-14.066l-1.951,0.844
			c0.336,0.916,0.684,8.041,0.826,14.398l0.026,1.126l7.343-0.596l-0.172-2.118L338.605,168.955z"/>
		<path fill="#1B1B17" d="M377.379,163.445c-0.124-0.072-0.238-0.135-0.334-0.199l-0.214-0.137
			c-0.854-0.533-2.024-1.268-2.119-3.062c-0.078-1.456,1.733-1.706,2.028-1.741c0.365-0.062,1.609-0.127,2.088,1.735l2.058-0.53
			c-0.809-3.127-3.268-3.521-4.505-3.3c-1.404,0.161-3.938,1.179-3.789,3.946c0.152,2.896,2.15,4.146,3.107,4.75l0.188,0.119
			c0.131,0.082,0.274,0.166,0.43,0.258c0.998,0.576,1.705,1.086,1.672,2.357c-0.008,0.282-0.262,0.48-0.475,0.598
			c-0.564,0.31-1.389,0.326-1.863,0.035c-0.2-0.121-0.461-0.355-0.446-0.98l-2.128-0.054c-0.032,1.239,0.486,2.252,1.464,2.845
			c0.591,0.362,1.308,0.535,2.039,0.521c0.669-0.01,1.347-0.178,1.948-0.504c0.981-0.537,1.558-1.416,1.582-2.412
			C380.182,165.064,378.357,164.012,377.379,163.445z"/>
	</g>
</g>
<path fill="#231F20" d="M393.5,90.854h-81.96v2.826h7.455c0.483,2.795,1.655,10.313,1.792,17.988l2.824-0.049
	c-0.086-4.901,0.299-9.692,0.709-13.282l56.91,0.259c0.36,2.975,0.582,7.331,0.338,13.621l2.824,0.11
	c0.441-11.384,1.045-16.619,1.346-18.647h7.762V90.854z"/>
<path fill="none" stroke="#231F20" stroke-width="1.3405" stroke-miterlimit="10" d="M322.273,104.479
	c-0.002-0.19-0.075,33.703-0.075,33.703s-2.966,0-2.966,3.452"/>
<path fill="none" stroke="#231F20" stroke-width="1.3405" stroke-miterlimit="10" d="M382.98,108l0.785,30.146
	c0,0,3.842-0.392,3.842,2.316"/>
<path fill="none" stroke="#231F20" stroke-width="0.8378" stroke-miterlimit="10" d="M320.754,118.96c0,0,56.196-0.313,64.18,0"/>
<line fill="none" stroke="#231F20" stroke-width="0.8378" stroke-miterlimit="10" x1="322.241" y1="118.952" x2="381.23" y2="98.596"/>
<line fill="none" stroke="#231F20" stroke-width="0.8378" stroke-miterlimit="10" x1="383.266" y1="118.916" x2="324.32" y2="98.337"/>
<circle fill="#231F20" cx="322.188" cy="140.887" r="2.672"/>
<circle fill="#231F20" cx="384.457" cy="141.148" r="2.883"/>
<path fill="none" stroke="#231F20" stroke-width="0.1929" stroke-miterlimit="10" d="M217.561,33.176"/>
<path fill="none" stroke="#231F20" stroke-width="0.5027" stroke-miterlimit="10" d="M225.139,60.934
	c0.615,2.209,0.85,4.723-0.973,8.732c-1.823,4.009-3.555,7.006,0.172,10.836"/>
<path fill="#FFFFFF" stroke="#231F20" stroke-width="0.5027" stroke-miterlimit="10" d="M223.918,77.951l-2.17,1.103l3.549,6.631
	l1.705-0.857C227.001,84.828,224.795,79.658,223.918,77.951z"/>
<g>
	<path fill="#231F20" d="M222.938,86.12c0,0,1.516-9.124,13.617-9.084c8.448-7.03,15.086,1.642,15.086,1.642
		s4.658-3.113,9.285,1.492c3.029,2.838,3.104,5.423,3.104,5.423"/>
	<path fill="none" stroke="#FFFFFF" stroke-width="1.3405" stroke-miterlimit="10" d="M246.865,83.047c0,0,1.434-3.944,2.269-4.966"
		/>
	<path fill="none" stroke="#FFFFFF" stroke-width="1.3405" stroke-miterlimit="10" d="M245.561,78.276
		c1.336,0.597,4.729,3.752,4.729,3.752"/>
	<path fill="none" stroke="#FFFFFF" stroke-width="0.3351" stroke-miterlimit="10" d="M259.828,81.646
		c-1.155-0.064-1.523,0.698,0.102,1.489C261.555,83.925,260.982,81.712,259.828,81.646z"/>
	<path fill="none" stroke="#FFFFFF" stroke-width="0.6703" stroke-miterlimit="10" d="M230.911,83.432c0,0,1.399,0.276,3.202-0.214"
		/>
	<path fill="none" stroke="#FFFFFF" stroke-width="0.8378" stroke-miterlimit="10" d="M253.312,79.087c0,0,2.818,1.665,5.402,1.055"
		/>
</g>
<path fill="none" stroke="#231F20" stroke-width="0.8378" stroke-miterlimit="10" d="M221.503,59.826c0,0,0.179,5.253,4.871,9.15
	c4.692,3.898,4.636,3.89,4.992,7.207"/>
<path fill="#FFFFFF" stroke="#231F20" stroke-width="0.5788" stroke-miterlimit="10" d="M254.91,61.25
	c0.792,3.418-0.984,17.173-0.984,17.173s0.596,0.526,2.174,0.875c1.577,0.349,2.375,0.014,2.375,0.014s1.817-8.409,1.844-17.263
	L254.91,61.25z"/>
<path fill="none" stroke="#231F20" stroke-width="0.5788" stroke-miterlimit="10" d="M253.589,74.008c0,0,2.606,0.618,6.82,0.948"/>
<path fill="none" stroke="#231F20" stroke-width="0.5788" stroke-miterlimit="10" d="M253.768,71.383c0,0,2.348,1.15,6.769,0.905"/>
<path fill="none" stroke="#231F20" stroke-width="0.5788" stroke-miterlimit="10" d="M253.882,68.315c0,0,3.419,0.827,6.742,0.815"
	/>
<path fill="none" stroke="#231F20" stroke-width="0.5788" stroke-miterlimit="10" d="M254.234,64.998c0,0,3.686,1.364,6.248,0.945"
	/>
<path fill="#231F20" d="M262.383,23.006l4.335-10.493l-10.944,0.927l-0.961-3.605l-38.051,7.204l1.764,4.48
	c-2.398,3.117-7.557,17.748-3.196,36.904l2.749,0.005l0.349,1.299l1.345-0.012l0.736,1.842l2.123-0.311l0.227-0.961
	c0.476,0.693,1.039,1.496,1.14,1.568c0.18,0.129,2.344-0.44,2.344-0.44l0.126-1.757l1.238-0.011l23.801-0.138l0.066,0.629
	c0,0,0.501,0.135,1.314,0.336l-0.014,2.276c0,0,3.682,1.322,9.539,1.354l0.01-1.908c0.59,0.035,1.124,0.039,1.578,0.001L264.07,60
	l1.604-0.758l0.056-0.731l2.267,0.004C267.998,58.515,270.323,33.02,262.383,23.006z"/>
<path fill="#FFFFFF" d="M261.841,57.354c0,0,1.496-15.145-5.805-21.722c-7.302-6.577-20.752-6.168-24.628,3.005
	c-3.875,9.173-2.701,19.197-2.701,19.197L261.841,57.354z"/>
<polygon fill="#231F20" points="206.611,85.405 278.391,85.399 278.751,102.727 267.439,105.205 267.57,123.833 257.047,124.686 
	252.688,109.63 235.926,109.898 232.751,128.168 219.893,127.479 219.247,105.754 207.354,104.135 "/>
<path fill="#FFFFFF" d="M233.288,86.833l25.866,0.294c0,0-3.022,5.686-10.853,5.553C240.475,92.545,234.896,89.458,233.288,86.833z"
	/>
<path fill="none" stroke="#231F20" stroke-width="0.5788" stroke-miterlimit="10" d="M253.533,75.886c0,0,2.72,1.415,5.89,1.164"/>
<path fill="#FFFFFF" stroke="#231F20" stroke-width="0.5027" stroke-miterlimit="10" d="M232.616,74.732l-1.351,0.285l-1.254,0.126
	c0,0,0.85,5.729,0.979,7.116c0,0,0.522,0.196,1.096,0.214c0.574,0.019,1.351-0.239,1.351-0.239S233.327,77.08,232.616,74.732z"/>
<path fill="none" stroke="#FFFFFF" stroke-width="0.8378" stroke-miterlimit="10" d="M262.105,31.649c0,0-0.572,1.857,1.291,3.258"
	/>
<path fill="none" stroke="#231F20" stroke-width="0.8378" stroke-miterlimit="10" d="M271.721,29.946c0,0,8.488-3.9,8.627,10.87
	c0.137,14.77-6.959,94.958,28.295,100.417c35.254,5.461,34.979-9.481-12.092-3.393c-47.072,6.092,20.842,1.954,32.99,4.299
	c12.146,2.346-1.391-7.754-33.273-3.394c-31.881,4.358,48.317,14.298,50.734-5.028c2.417-19.324-0.581-41.168-1.725-47.597"/>
<polygon fill="#FFFFFF" stroke="#231F20" stroke-width="0.5027" stroke-miterlimit="10" points="269.762,29.404 272.928,28.867 
	273.301,30.582 270.57,31.514 "/>
<path fill="#FFFFFF" stroke="#231F20" stroke-width="0.5027" stroke-miterlimit="10" d="M271.807,31.792
	c0,0-0.562-0.732-0.841-1.437c-0.278-0.705-0.401-1.669-0.401-1.669l-7.371,2.744c0,0-0.455,0.817-0.135,1.604
	c0.32,0.787,0.933,1.242,0.933,1.242L271.807,31.792z"/>
<path fill="#231F20" d="M318.919,48.022c0,0-1.884,17.271,0,39.251l4.763,0.174l0.568,4.019h49.331l0.392-3.513l5.45-0.575
	l0.837-37.788c0,0-34.445-1.442-34.436-1.442C345.833,48.149,322.789,47.681,318.919,48.022z"/>
<polygon fill="none" stroke="#FFFFFF" stroke-width="0.5231" stroke-miterlimit="10" points="376.292,59.333 362.788,59.107 
	362.883,54.952 376.334,55.744 "/>
<polygon id="indicator_1_" fill="none" stroke="#FFFFFF" stroke-width="0.5027" stroke-miterlimit="10" points="376.501,66.111 
	362.689,65.714 362.756,62.5 376.578,62.657 "/>
<polygon fill="#FFFFFF" points="376.128,73.164 362.916,72.903 362.956,69.083 376.171,68.925 "/>
<g>
	<path fill="#FFFFFF" d="M358.412,82.622c-15.157,0.854-22.499,0.682-36.314,0.274c-1.015-10.085-0.81-21.385,0.186-31.458
		c11.999-0.374,34.227,0,36.56,0.613C359.029,54.456,359.52,62.734,358.412,82.622z"/>
</g>
<path fill="none" stroke="#FFFFFF" stroke-width="0.5027" stroke-miterlimit="10" d="M365.919,78.082c0,0-2.721,1.413-0.465,3.712
	C368.307,83.459,369.234,77.365,365.919,78.082z"/>
<path fill="#FFFFFF" d="M372.984,78.082c0,0-2.721,1.413-0.465,3.712C375.372,83.459,376.301,77.365,372.984,78.082z"/>
<path fill="#231F20" d="M325.616,59.895l-0.956-0.73l1.595-2.087l-1.589-1.52l0.831-0.868c2.124,1.735,2.364,2.262,2.364,2.262
	S327.516,57.556,325.616,59.895z"/>
<path fill="none" stroke="#231F20" stroke-width="0.1621" stroke-miterlimit="10" d="M369.425,74.124"/>
<path fill="#231F20" d="M244.002,46.746c0-2.102-1.704-3.806-3.805-3.806c-2.102,0-3.805,1.704-3.805,3.806
	c0,1.542,0.918,2.869,2.236,3.467l0.229,3.243l2.662,0.086l0.242-3.327C243.082,49.619,244.002,48.291,244.002,46.746z"/>
<path fill="none" stroke="#231F20" stroke-width="1.6756" stroke-miterlimit="10" d="M240.189,51.645c0,0-0.32,46.517,8.944,69.541
	c9.267,23.022,16.534,21.996,70.601,17.401c29.22-4.872,32.248-50.168,32.248-50.168"/>
</svg>
