<?xml version="1.0" encoding="utf-8"?>
<!-- Generator: Adobe Illustrator 16.0.0, SVG Export Plug-In . SVG Version: 6.00 Build 0)  -->
<!DOCTYPE svg PUBLIC "-//W3C//DTD SVG 1.1//EN" "http://www.w3.org/Graphics/SVG/1.1/DTD/svg11.dtd">
<svg version="1.1" id="Layer_1" xmlns="http://www.w3.org/2000/svg" xmlns:xlink="http://www.w3.org/1999/xlink" x="0px" y="0px" viewBox="20.5 -19.5 1000 1200" enable-background="new 20.5 -19.5 1000 1200" xml:space="preserve">
<g>
	<path fill="#212024" d="M303.959,993.883c12.925-70.562-6.508-103.141-6.508-103.141l15.08-27.688l-26.947-6.934l-1.59-24.861
		l-128.489,13.33l1.88,18.126c-37.882,27.976-55.465,78.692-49.503,136.214l-30.314,5.966l9.467,65.991l35.794-0.84l2.228,62.754
		l40.243,8.527l14.993-72.883l34.779,0.824l10.808,67.33l43.979-3.18l7.386-71.603l50.769-7.925l0.92-55.176L303.959,993.883z"/>
</g>
<ellipse transform="matrix(2.775947e-04 -1 1 2.775947e-04 -708.83 1172.6841)" fill="#FFFFFF" cx="232.09" cy="940.855" rx="56.281" ry="56.683"/>
<g>
	<path fill="#212024" d="M448.657,731.767c-11.951-12.17-26.952-19.875-43.224-22.47l1.112-7.238l-26.539-3.281l1.391-74.379
		l-334.763-6.267L44.51,731.564l334.765,6.267l0.306-16.38l24.08-0.619l1.016-6.613c15.208,2.424,29.232,9.667,40.413,21.051
		c13.864,14.117,30.003,41.399,28.159,91.2c-3.059,82.592-36.596,140.511-85.439,147.556c-24.498,3.538-52.126-0.785-74.214-6.229
		l2.571-8.797l-32.8-11.902c0.247-2.048,0.389-4.128,0.389-6.24c0-28.535-23.132-51.67-51.667-51.67
		c-28.536,0-51.668,23.135-51.668,51.668c0,28.535,23.132,51.668,51.668,51.668c17.779,0,33.459-8.98,42.754-22.653l35.824,7.95
		l1.515-5.184c15.712,3.88,36.262,7.665,56.666,7.665c6.632,0,13.25-0.4,19.676-1.327c25.888-3.734,48.013-20.556,63.982-48.647
		c15.326-26.961,24.227-62.81,25.74-103.672C480.156,775.075,463.209,746.585,448.657,731.767z"/>
</g>
<path fill="#212024" d="M304.293,393.883c12.925-70.562-6.508-103.141-6.508-103.141l15.08-27.686l-26.947-6.934l-1.59-24.862
	l-128.49,13.331l1.879,18.125c-37.881,27.976-55.464,78.692-49.502,136.214L77.9,404.896l9.467,65.99l35.794-0.84l2.228,62.754
	l40.243,8.527l14.994-72.883l34.779,0.824l10.807,67.33l43.979-3.18l7.385-71.602l50.769-7.924l0.92-55.178L304.293,393.883z"/>
<path fill="#FFFFFF" d="M232.437,284.574c-31.304-0.009-56.689,25.184-56.698,56.268c-0.01,31.082,25.361,56.285,56.667,56.295
	c31.304,0.008,56.69-25.18,56.698-56.264C289.113,309.789,263.743,284.585,232.437,284.574z M219.961,362.508
	c0,2.664-2.161,4.404-4.824,4.404h-2.369c-2.664,0-4.823-1.744-4.823-4.408l0.014-43.893c0-2.665,2.16-5.041,4.824-5.041h2.369
	c2.664,0,4.823,2.378,4.823,5.043L219.961,362.508z M256.764,362.512c0,2.666-2.162,4.4-4.826,4.4h-2.369
	c-2.664,0-4.824-1.738-4.821-4.402l0.012-43.896c0.001-2.665,2.162-5.043,4.826-5.043h2.369c2.664,0,4.823,2.381,4.823,5.047
	L256.764,362.512z"/>
<polygon fill="#212024" points="406.88,102.059 380.341,98.778 381.732,24.398 46.968,18.132 44.844,131.564 379.609,137.831 
	379.915,121.451 403.995,120.833 "/>
<path fill="#212024" d="M804.293,393.883c12.925-70.562-6.508-103.141-6.508-103.141l15.08-27.686l-26.947-6.934l-1.59-24.861
	l-128.489,13.33l1.88,18.126c-37.882,27.976-55.465,78.692-49.503,136.214l-30.313,5.967l9.467,65.99l35.794-0.84l2.228,62.754
	l40.243,8.527l14.993-72.883l34.779,0.826l10.808,67.328l43.979-3.18l7.385-71.602l50.769-7.925l0.92-55.177L804.293,393.883z"/>
<path fill="#FFFFFF" d="M732.438,284.574c-31.305-0.01-56.688,25.184-56.697,56.268c-0.012,31.082,25.359,56.285,56.668,56.295
	c31.304,0.008,56.688-25.18,56.695-56.264C789.113,309.789,763.742,284.585,732.438,284.574z M719.961,362.508
	c0,2.664-2.161,4.404-4.824,4.404h-2.369c-2.664,0-4.82-1.744-4.82-4.408l0.014-43.893c0-2.665,2.159-5.041,4.824-5.041h2.368
	c2.661,0,4.821,2.378,4.821,5.043L719.961,362.508z M756.764,362.512c0,2.666-2.161,4.4-4.823,4.4h-2.369
	c-2.663,0-4.823-1.738-4.821-4.402l0.012-43.896c0.002-2.665,2.162-5.043,4.826-5.043h2.369c2.664,0,4.822,2.381,4.822,5.047
	L756.764,362.512z"/>
<polygon fill="#212024" points="906.88,102.059 880.341,98.777 881.732,24.398 546.969,18.132 544.844,131.564 879.609,137.831 
	879.915,121.451 903.995,120.832 "/>
<g>
	<path fill="#212024" d="M506.569,502.887c-2.245-6.66-24.97-43.693-27.353-47.867c-1.951-3.408-7.688-3.715-14.204-1.152
		c-5.661-6.549-12.812-20.496-12.812-20.496l-14.613,5.361l8.996,25.264l-13.18,7.531l35.692,62.467l25.91-14.809l0.521-0.297
		l0.72-0.408C504.46,513.785,508.814,509.551,506.569,502.887z"/>
	<polygon fill="#212024" points="466.64,535.396 430.945,472.93 422.994,477.473 428.944,487.883 407.855,499.934 413.807,510.342 
		434.892,498.295 447.248,519.918 426.163,531.967 432.11,542.377 453.196,530.33 458.688,539.941 	"/>
</g>
<rect x="448.64" y="467.471" transform="matrix(-0.8685 0.4958 -0.4958 -0.8685 1090.5023 717.5446)" fill="#FFFFFF" width="2.833" height="71.951"/>
<g>
	<path fill="#212024" d="M988.099,523.211c-0.528-7.008-13.396-48.509-14.676-53.141c-1.049-3.787-6.535-5.5-13.479-4.628
		c-3.867-7.745-7.354-23.026-7.354-23.026L937.105,444l2.477,26.703l-14.631,4.042l19.154,69.35l28.765-7.944l0.577-0.16l0.799-0.22
		C983.362,533.25,988.628,530.224,988.099,523.211z"/>
	<polygon fill="#212024" points="941.376,544.848 922.221,475.499 913.394,477.938 916.587,489.494 893.176,495.962 896.37,507.517 
		919.778,501.053 926.409,525.059 903.001,531.524 906.191,543.081 929.601,536.617 932.548,547.287 	"/>
</g>
<rect x="931.739" y="473.814" transform="matrix(-0.964 0.2657 -0.2657 -0.964 1968.23 753.2598)" fill="#FFFFFF" width="2.833" height="71.94"/>
<g>
	<path fill="#212024" d="M803.959,993.883c12.925-70.562-6.508-103.141-6.508-103.141l15.08-27.688l-26.947-6.934l-1.59-24.861
		l-128.489,13.33l1.88,18.126c-37.882,27.976-55.465,78.692-49.503,136.214l-30.313,5.966l9.467,65.991l35.794-0.84l2.228,62.754
		l40.243,8.527l14.993-72.883l34.779,0.824l10.808,67.33l43.979-3.18l7.386-71.603l50.769-7.925l0.92-55.176L803.959,993.883z"/>
</g>
<g>
	<path fill="#212024" d="M816.166,959l-32.8-11.902c0.247-2.048,0.389-4.128,0.389-6.24c0-28.535-23.132-51.67-51.667-51.67
		c-28.536,0-51.668,23.135-51.668,51.668c0,28.535,23.132,51.668,51.668,51.668c17.779,0,33.459-8.98,42.754-22.653l35.824,7.95
		L816.166,959z"/>
</g>
<g opacity="0.1">
	<path fill="#FFFFFF" d="M572.096,96.099l3.522-54.634l-2.994-0.193l-3.617,56.104l1.368,1.591
		c0.068,0.006,6.896,0.589,14.238,0.781c1.605,0.042,3.071,0.062,4.409,0.062c11.342,0,13.508-1.375,14.274-1.86l-1.607-2.533
		C598.567,97.397,582.483,96.916,572.096,96.099z"/>
	<path fill="#FFFFFF" d="M628.369,51.717c-6.308-4.992-14.525-3.641-22.539,3.714l2.027,2.21c0.951-0.872,1.896-1.648,2.832-2.328
		c-1.273,5.769-6.224,29.086-4.149,33.936c0.399,0.934,4.1,9.132,10.866,9.492c0.149,0.008,0.298,0.012,0.447,0.012
		c4.759,0,9.436-4.042,13.907-12.025C637.819,75.911,637.902,59.261,628.369,51.717z M629.144,85.262
		c-3.95,7.052-7.971,10.692-11.578,10.484c-4.032-0.214-7.171-5.116-8.268-7.677c-1.355-3.17,1.991-21.651,4.42-32.556l-2.519-0.561
		c5.686-3.929,11.028-4.271,15.309-0.882C633.235,59.394,635.9,73.198,629.144,85.262z"/>
	<path fill="#FFFFFF" d="M672.105,74.446l-22.133,1.488c1.851-8.993,5.086-17.721,7.184-21.141c1.262-2.056,2.729-3.195,4.361-3.384
		c3.09-0.354,6.072,2.607,6.103,2.637l2.138-2.104c-0.161-0.165-4.023-4.028-8.567-3.515c-2.602,0.295-4.819,1.91-6.591,4.798
		c-2.201,3.586-5.817,13.082-7.745,22.919l-2.79,0.188l0.201,2.993l2.051-0.138c-1.22,7.766-1.19,15.389,1.61,20.139
		c1.913,3.245,5.012,4.946,8.988,4.945c0.214,0,0.432-0.005,0.651-0.015c5.155-0.234,9.21-2.153,12.05-5.704
		c6.584-8.233,4.173-22.28,4.066-22.874L672.105,74.446z M667.268,96.686c-2.275,2.843-5.586,4.382-9.837,4.574
		c-3.219,0.144-5.463-0.986-6.92-3.458c-2.458-4.168-2.353-11.392-1.107-18.822l21.507-1.447
		C671.316,81.076,671.928,90.867,667.268,96.686z"/>
	<path fill="#FFFFFF" d="M694.081,95.514c-0.729-11.464,1.633-29.617,2.856-37.95c4.555-0.261,8.971-0.461,10.512-0.367l0.18-2.995
		c-1.586-0.092-5.805,0.089-10.232,0.335c0.136-0.865,0.22-1.376,0.227-1.417l-2.959-0.495c-0.031,0.186-0.154,0.928-0.335,2.09
		c-5.089,0.307-9.708,0.636-10.096,0.665l0.215,2.992c0.092-0.006,4.467-0.321,9.423-0.625c-1.267,8.654-3.516,26.271-2.788,37.902
		c-4.901,0.235-8.89,0.499-9.274,0.524l0.199,2.993c2.508-0.167,5.847-0.363,9.346-0.531c0.121,0.973,0.27,1.884,0.452,2.717
		l2.932-0.641c-0.148-0.678-0.269-1.425-0.372-2.21c6.363-0.262,12.626-0.373,14.874,0.014l0.51-2.956
		C707.15,95.112,700.334,95.255,694.081,95.514z"/>
	<path fill="#FFFFFF" d="M732.129,48.394l-2.998-0.103l-0.048,1.407c-7.698-0.215-14.193-0.015-14.702,0.002l0.098,2.998
		c0.123-0.004,6.712-0.208,14.501,0.008l-1.88,54.812l2.998,0.103l1.88-54.812c6.151,0.255,12.62,0.804,17.02,1.927l0.742-2.906
		c-4.659-1.19-11.348-1.765-17.659-2.028L732.129,48.394z"/>
	<path fill="#FFFFFF" d="M775.574,81.921c-4.811-10.775-12.657-28.352-13.13-29.413l-2.856,0.41l-4.286,31.693
		c-0.294,0.05-0.457,0.079-0.465,0.08l0.256,1.462l-2.673,19.764l2.973,0.402l2.585-19.112c1.777-0.29,4.292-0.685,7.048-1.073
		c3.305-0.466,6.215-0.814,8.678-1.044c1.474,3.303,2.534,5.678,2.78,6.229c0.272,1.14,1.508,8.3,0.183,12.069l2.83,0.995
		c1.815-5.163-0.073-13.849-0.223-14.174c-0.021-0.049-0.968-2.169-2.395-5.366c2.22-0.127,3.862-0.109,4.831,0.063l0.527-2.953
		C780.876,81.71,778.644,81.701,775.574,81.921z M764.607,83.164c-2.339,0.33-4.51,0.665-6.21,0.937l3.456-25.555
		c2.653,5.943,7.22,16.173,10.559,23.652C770.14,82.429,767.54,82.75,764.607,83.164z"/>
	<polygon fill="#FFFFFF" points="815.979,102.625 797.049,53.748 794.151,54.244 792.479,108.961 795.477,109.053 796.924,61.73 
		814.908,108.167 817.765,107.98 829.83,58.359 826.914,57.65 	"/>
	<path fill="#FFFFFF" d="M841.654,81.386l26.116-14.542l-1.459-2.621l-26.146,14.559l1.209-25.21l-2.996-0.144l-2.738,57.105
		l2.996,0.144l1.286-26.825c4.811,3.743,17.24,14.348,18.391,24.813l2.982-0.328C859.996,96.533,846.704,85.271,841.654,81.386z"/>
</g>
<g opacity="0.1">
	<path fill="#FFFFFF" d="M72.096,96.307l3.522-54.634l-2.994-0.193l-3.711,57.569l1.462,0.126c0.068,0.006,6.896,0.589,14.238,0.781
		c1.606,0.042,3.072,0.062,4.41,0.062c11.341,0,13.507-1.375,14.273-1.86l-1.606-2.533C98.565,97.605,82.485,97.123,72.096,96.307z"
		/>
	<path fill="#FFFFFF" d="M128.37,51.925c-6.312-4.994-14.526-3.641-22.54,3.714l2.028,2.21c0.95-0.872,1.896-1.648,2.832-2.328
		c-1.274,5.769-6.224,29.086-4.149,33.936c0.399,0.934,4.1,9.132,10.866,9.492c0.149,0.008,0.298,0.012,0.447,0.012
		c4.758,0,9.436-4.042,13.907-12.025C137.819,76.118,137.902,59.469,128.37,51.925z M129.144,85.469
		c-3.95,7.051-7.952,10.676-11.578,10.484c-4.032-0.214-7.171-5.116-8.268-7.677c-1.356-3.17,1.992-21.651,4.42-32.556L111.2,55.16
		c5.688-3.93,11.028-4.271,15.308-0.882C133.235,59.601,135.9,73.405,129.144,85.469z"/>
	<path fill="#FFFFFF" d="M173.447,74.563l-23.474,1.579c1.851-8.993,5.086-17.721,7.184-21.141c1.261-2.056,2.728-3.195,4.361-3.384
		c3.095-0.366,6.072,2.607,6.102,2.637l2.138-2.104c-0.162-0.165-4.005-4.036-8.567-3.515c-2.602,0.295-4.819,1.91-6.591,4.798
		c-2.201,3.586-5.817,13.082-7.745,22.919l-2.79,0.188l0.201,2.993l2.051-0.138c-1.22,7.766-1.19,15.389,1.61,20.139
		c1.914,3.245,5.012,4.946,8.988,4.945c0.214,0,0.432-0.005,0.651-0.015c5.156-0.234,9.21-2.153,12.05-5.704
		c6.584-8.233,4.172-22.28,4.066-22.874L173.447,74.563z M167.268,96.893c-2.276,2.843-5.586,4.382-9.838,4.574
		c-3.192,0.149-5.462-0.985-6.919-3.458c-2.458-4.168-2.354-11.392-1.108-18.822l21.507-1.447
		C171.316,81.283,171.927,91.074,167.268,96.893z"/>
	<path fill="#FFFFFF" d="M194.081,95.721c-0.728-11.463,1.633-29.614,2.857-37.947c4.556-0.26,8.973-0.461,10.512-0.369l0.179-2.995
		c-1.583-0.092-5.803,0.09-10.232,0.336c0.136-0.865,0.22-1.377,0.227-1.417l-2.959-0.495c-0.031,0.186-0.154,0.928-0.335,2.091
		c-5.088,0.307-9.708,0.636-10.095,0.664l0.215,2.992c0.092-0.006,4.467-0.319,9.423-0.624c-1.267,8.655-3.515,26.27-2.788,37.9
		c-4.901,0.235-8.89,0.499-9.275,0.524l0.199,2.993c2.507-0.167,5.847-0.364,9.346-0.531c0.121,0.973,0.27,1.884,0.452,2.717
		l2.931-0.641c-0.148-0.678-0.268-1.425-0.372-2.21c6.364-0.262,12.627-0.373,14.875,0.014l0.51-2.956
		C207.152,95.319,200.334,95.461,194.081,95.721z"/>
	<path fill="#FFFFFF" d="M232.129,48.601l-2.998-0.103l-0.048,1.408c-7.698-0.215-14.192-0.015-14.702,0.002l0.098,2.998
		c0.124-0.004,6.712-0.207,14.501,0.009l-1.88,54.812l2.998,0.103l1.88-54.812c6.152,0.255,12.62,0.804,17.02,1.927l0.742-2.906
		c-4.659-1.19-11.347-1.764-17.659-2.028L232.129,48.601z"/>
	<path fill="#FFFFFF" d="M275.574,82.129c-4.81-10.775-12.657-28.353-13.13-29.414l-2.856,0.41l-4.287,31.693
		c-0.293,0.05-0.456,0.079-0.464,0.08l0.256,1.462l-2.673,19.764l2.973,0.402l2.585-19.112c1.777-0.29,4.292-0.685,7.048-1.073
		c3.304-0.466,6.214-0.814,8.677-1.045c1.474,3.303,2.534,5.678,2.78,6.23c0.272,1.14,1.508,8.3,0.183,12.069l2.83,0.995
		c1.815-5.163-0.074-13.849-0.223-14.174c-0.021-0.049-0.968-2.169-2.395-5.366c2.22-0.128,3.862-0.109,4.831,0.063l0.527-2.953
		C280.878,81.918,278.646,81.909,275.574,82.129z M264.607,83.371c-2.339,0.33-4.51,0.665-6.21,0.937l3.457-25.555
		c2.653,5.943,7.22,16.174,10.559,23.653C270.14,82.637,267.541,82.958,264.607,83.371z"/>
	<polygon fill="#FFFFFF" points="315.979,102.833 297.049,53.956 294.151,54.451 292.478,109.169 295.477,109.261 296.924,61.938 
		314.908,108.375 317.764,108.188 329.83,58.566 326.915,57.857 	"/>
	<path fill="#FFFFFF" d="M341.654,81.594l26.116-14.542l-1.459-2.621l-26.146,14.559l1.209-25.21l-2.996-0.144l-2.738,57.105
		l2.996,0.144l1.286-26.824c4.812,3.743,17.24,14.348,18.391,24.813l2.982-0.328C359.997,96.741,346.705,85.479,341.654,81.594z"/>
</g>
<path fill="#212024" d="M451.057,453.875c-24.218-49.674-15.398-83.875-2.048-135.646c6.089-23.615,12.994-50.385,18.542-84.458
	c4.026-24.731,2.204-46.627-5.416-65.079c-6.066-14.694-15.824-27.286-28.999-37.429c-22.547-17.357-47.479-21.556-47.729-21.596
	l0.886-5.463c1.073,0.175,26.575,4.473,50.219,22.675c13.954,10.742,24.297,24.1,30.74,39.701
	c8.02,19.417,9.957,42.322,5.763,68.082c-5.592,34.325-12.524,61.221-18.646,84.955c-13.507,52.379-21.661,83.998,1.667,131.838
	L451.057,453.875z"/>
<path fill="#212024" d="M946.021,454.385c-22.949-49.937-13.141-83.599,1.718-134.557c6.772-23.245,14.457-49.592,20.979-83.223
	c4.733-24.408,3.513-46.17-3.63-64.681c-5.688-14.74-15.14-27.501-28.094-37.931c-22.17-17.846-47.104-22.711-47.354-22.759
	l1.042-5.392c1.073,0.203,26.576,5.184,49.824,23.899c13.721,11.045,23.74,24.582,29.78,40.232
	c7.516,19.479,8.826,42.244,3.896,67.668c-6.571,33.876-14.289,60.351-21.1,83.708c-15.028,51.557-24.101,82.679-1.994,130.771
	L946.021,454.385z"/>
<path fill="none" stroke="#FFFFFF" stroke-width="5" stroke-linejoin="bevel" stroke-miterlimit="10" d="M255.061,686.56
	c0,0,4.396-0.771,9.721-1.521c6.381-0.899,14.096-1.766,17.157-1.219"/>
<g opacity="0.1">
	<path fill="#FFFFFF" d="M72.061,696.489l3.522-54.634l-2.994-0.193l-3.711,57.569l1.462,0.126c0.068,0.006,6.896,0.59,14.238,0.781
		c1.606,0.042,3.072,0.062,4.41,0.062c11.341,0,13.507-1.374,14.273-1.86l-1.606-2.533C98.531,697.787,82.45,697.306,72.061,696.489
		z"/>
	<path fill="#FFFFFF" d="M128.335,652.107c-6.312-4.995-14.526-3.64-22.54,3.714l2.028,2.211c0.95-0.872,1.896-1.648,2.832-2.328
		c-1.274,5.768-6.224,29.085-4.149,33.935c0.399,0.935,4.1,9.133,10.866,9.493c0.149,0.008,0.298,0.012,0.447,0.012
		c4.758-0.001,9.436-4.043,13.907-12.025C137.785,676.301,137.868,659.651,128.335,652.107z M129.109,685.651
		c-3.95,7.052-7.956,10.67-11.578,10.484c-4.032-0.215-7.171-5.115-8.268-7.677c-1.356-3.17,1.992-21.651,4.42-32.556l-2.519-0.561
		c5.687-3.93,11.029-4.269,15.308-0.883C133.201,659.784,135.865,673.588,129.109,685.651z"/>
	<path fill="#FFFFFF" d="M173.412,674.746l-23.474,1.579c1.851-8.993,5.086-17.722,7.184-21.142
		c1.261-2.057,2.728-3.195,4.361-3.385c3.096-0.365,6.072,2.607,6.102,2.638l2.138-2.104c-0.161-0.165-4.01-4.052-8.567-3.515
		c-2.602,0.295-4.819,1.909-6.591,4.798c-2.201,3.587-5.817,13.082-7.745,22.919l-2.79,0.188l0.201,2.994l2.051-0.139
		c-1.22,7.767-1.19,15.39,1.61,20.14c1.914,3.244,5.012,4.945,8.988,4.945c0.214,0,0.432-0.005,0.651-0.016
		c5.156-0.233,9.21-2.152,12.05-5.703c6.584-8.233,4.172-22.279,4.066-22.874L173.412,674.746z M167.233,697.076
		c-2.276,2.842-5.586,4.381-9.838,4.574c-3.192,0.137-5.461-0.987-6.919-3.458c-2.458-4.169-2.354-11.393-1.108-18.822l21.507-1.446
		C171.282,681.466,171.893,691.257,167.233,697.076z"/>
	<path fill="#FFFFFF" d="M194.046,695.903c-0.728-11.463,1.633-29.613,2.857-37.946c4.556-0.261,8.973-0.461,10.512-0.37
		l0.179-2.994c-1.584-0.096-5.804,0.085-10.231,0.332c0.135-0.862,0.219-1.373,0.226-1.413l-2.959-0.496
		c-0.031,0.186-0.154,0.927-0.335,2.088c-5.088,0.308-9.708,0.639-10.096,0.667l0.215,2.992c0.092-0.007,4.467-0.319,9.423-0.624
		c-1.267,8.655-3.515,26.27-2.788,37.899c-4.901,0.235-8.89,0.499-9.275,0.524l0.199,2.994c2.507-0.167,5.847-0.363,9.346-0.53
		c0.121,0.973,0.27,1.883,0.452,2.716l2.931-0.641c-0.148-0.678-0.268-1.425-0.372-2.209c6.364-0.262,12.627-0.373,14.875,0.014
		l0.51-2.957C207.117,695.501,200.299,695.644,194.046,695.903z"/>
</g>
<g>
	<path fill="none" stroke="#FFFFFF" stroke-width="5" stroke-miterlimit="10" d="M214.395,651.59c0,0,23.756-0.771,34.938,2.084"/>
	
		<line fill="none" stroke="#FFFFFF" stroke-width="5" stroke-miterlimit="10" x1="228.564" y1="707.961" x2="230.595" y2="648.732"/>
</g>
<path fill="none" stroke="#FFFFFF" stroke-width="5" stroke-linejoin="bevel" stroke-miterlimit="10" d="M253.872,706.509
	l7.168-52.999c0,0,16.736,37.49,16.826,37.694c0.092,0.2,1.79,8.494,0.181,13.072"/>
<polyline fill="none" stroke="#FFFFFF" stroke-width="5" stroke-linejoin="bevel" stroke-miterlimit="10" points="293.943,709.397 
	295.616,654.68 316.272,708.016 328.337,658.395 "/>
<line fill="none" stroke="#FFFFFF" stroke-width="5" stroke-linejoin="bevel" stroke-miterlimit="10" x1="339.841" y1="653.89" x2="337.103" y2="710.995"/>
<path fill="none" stroke="#FFFFFF" stroke-width="5" stroke-linejoin="bevel" stroke-miterlimit="10" d="M367.006,665.924
	l-28.149,15.674c0,0,19.396,13.513,20.912,27.294"/>
<ellipse transform="matrix(2.775947e-04 -1 1 2.775947e-04 -208.9688 1672.6841)" fill="#FFFFFF" cx="732.09" cy="940.855" rx="56.281" ry="56.683"/>
<g>
	<path fill="#212024" d="M948.657,731.767c-11.947-12.166-26.971-19.87-43.224-22.468l1.112-7.24l-26.539-3.281l1.392-74.379
		l-334.764-6.267l-2.125,113.433l334.766,6.267l0.306-16.38l24.08-0.619l1.017-6.614c15.215,2.422,29.229,9.666,40.412,21.052
		c13.864,14.117,30.004,41.399,28.159,91.2c-3.06,82.592-36.597,140.511-85.439,147.556c-24.499,3.536-52.127-0.786-74.214-6.229
		l2.57-8.796l-32.8-11.902c0.247-2.048,0.389-4.128,0.389-6.24c0-28.535-23.132-51.67-51.667-51.67
		c-28.536,0-51.668,23.135-51.668,51.668c0,28.535,23.132,51.668,51.668,51.668c17.779,0,33.459-8.98,42.754-22.653l35.824,7.95
		l1.515-5.184c15.713,3.88,36.263,7.665,56.666,7.665c6.632,0,13.25-0.4,19.676-1.327c25.889-3.734,48.014-20.556,63.982-48.647
		c15.326-26.961,24.227-62.81,25.74-103.672C980.156,775.075,963.21,746.585,948.657,731.767z"/>
</g>
<g>
	<path fill="#FFFFFF" d="M572.823,695.386l3.459-53.648l-4.99-0.322l-3.774,58.546l2.438,0.211
		c3.441,0.296,11.087,0.874,18.327,0.874c6.532,0,12.735-0.471,15.216-2.044l-2.678-4.223
		C598.385,696.323,584.886,696.287,572.823,695.386z"/>
	<path fill="#FFFFFF" d="M628.656,651.141c-3.187-2.521-11.889-7.201-23.837,3.762l3.381,3.684c0.193-0.178,0.388-0.352,0.581-0.521
		c-1.928,9.072-5.422,27.279-3.494,31.785c0.424,0.992,4.361,9.706,11.731,10.098c0.168,0.009,0.336,0.014,0.503,0.014
		c5.146,0,10.115-4.215,14.778-12.537C638.559,676.247,638.589,659.001,628.656,651.141z M627.938,684.98
		c-3.697,6.6-7.435,10.167-10.653,9.974c-3.284-0.174-6.226-4.324-7.4-7.07c-1.058-2.567,1.5-18.581,4.477-31.945l-2.136-0.477
		c4.997-3.157,9.629-3.329,13.328-0.4C633.369,661.246,633.083,675.793,627.938,684.98z"/>
	<path fill="#FFFFFF" d="M673.94,673.506l-23.016,1.548c1.866-8.422,4.841-16.418,6.75-19.53c1.091-1.778,2.309-2.759,3.617-2.913
		c2.163-0.242,4.547,1.609,5.285,2.349l3.561-3.51c-0.44-0.448-4.452-4.361-9.394-3.809c-2.924,0.332-5.391,2.104-7.331,5.269
		c-2.226,3.627-5.533,12.24-7.552,21.685c-0.057,0.268-0.113,0.538-0.17,0.812l-2.028,0.137l0.336,4.988l0.814-0.055
		c-0.97,6.918-1.032,14.563,1.918,19.566c2.104,3.567,5.496,5.438,9.839,5.438c0.233,0,0.469-0.006,0.707-0.017
		c5.456-0.247,9.758-2.292,12.785-6.078c6.864-8.583,4.38-23.061,4.271-23.673L673.94,673.506z M666.15,696.272
		c-2.118,2.642-5.094,4.015-9.1,4.196c-2.841,0.114-4.744-0.815-6.013-2.967c-2.235-3.79-2.188-10.42-1.084-17.372l19.727-1.326
		C670.042,682.782,670.224,691.189,666.15,696.272z"/>
	<path fill="#FFFFFF" d="M694.684,694.679c-0.521-11.008,1.58-27.58,2.791-35.95c4.318-0.239,8.219-0.406,9.581-0.326l0.299-4.99
		c-1.489-0.088-5.123,0.053-9.109,0.264c0.017-0.099,0.028-0.169,0.03-0.182l-4.932-0.826c-0.023,0.14-0.099,0.596-0.211,1.303
		c-4.464,0.275-8.418,0.557-9.306,0.62l0.359,4.986c1.89-0.136,4.923-0.343,8.186-0.546c-1.251,8.768-3.19,24.677-2.669,35.871
		c-4.116,0.207-7.438,0.424-8.295,0.48l0.332,4.988c1.973-0.132,5.037-0.314,8.421-0.481c0.098,0.658,0.205,1.296,0.334,1.884
		l4.885-1.068c-0.072-0.329-0.135-0.681-0.196-1.037c5.815-0.225,11.494-0.313,13.552,0.041l0.85-4.928
		C707.026,694.34,700.711,694.443,694.684,694.679z"/>
	<path fill="#FFFFFF" d="M732.794,648.636l-4.996-0.172l-0.015,0.418c-7.296-0.175-13.28,0.011-13.769,0.026l0.162,4.998
		c0.118-0.005,6.134-0.189,13.436-0.019l-1.846,53.805l4.996,0.172l1.845-53.805c5.782,0.269,11.715,0.809,15.809,1.854l1.236-4.844
		c-4.481-1.145-10.798-1.728-16.873-2.012L732.794,648.636z"/>
	<path fill="#FFFFFF" d="M775.867,681.08c-4.605-10.317-11.698-26.207-12.844-28.772l-4.761,0.685l-7.168,52.999l4.955,0.67
		l2.485-18.377c1.701-0.273,3.907-0.615,6.296-0.952c3.218-0.453,5.808-0.761,7.918-0.97c1.251,2.803,2.159,4.837,2.448,5.484
		c0.401,1.747,1.331,8.177,0.191,11.418l4.717,1.658c1.866-5.308,0.067-14.215-0.251-14.908c-0.019-0.043-0.71-1.592-1.797-4.027
		c1.801-0.052,2.712,0.034,3.143,0.111l0.879-4.922C781.451,681.063,780.033,680.812,775.867,681.08z M764.134,682.381
		c-1.774,0.25-3.448,0.503-4.898,0.729l2.805-20.739c2.498,5.595,5.854,13.112,8.564,19.186
		C768.76,681.762,766.623,682.03,764.134,682.381z"/>
	<polygon fill="#FFFFFF" points="815.426,699.499 797.647,653.594 792.817,654.421 791.145,709.139 796.143,709.291 
		797.438,666.898 813.642,708.736 818.402,708.424 830.468,658.803 825.608,657.621 	"/>
	<path fill="#FFFFFF" d="M843.119,681.736l24.804-13.811l-2.432-4.369l-24.575,13.684l1.123-23.413l-4.994-0.24l-2.738,57.105
		l4.994,0.24l1.192-24.876c5.396,4.4,15.483,13.76,16.491,22.926l4.971-0.547C860.709,697.111,848.901,686.369,843.119,681.736z"/>
</g>
</svg>
