<?xml version="1.0" encoding="utf-8"?>
<!-- Generator: Adobe Illustrator 16.0.0, SVG Export Plug-In . SVG Version: 6.00 Build 0)  -->
<!DOCTYPE svg PUBLIC "-//W3C//DTD SVG 1.1//EN" "http://www.w3.org/Graphics/SVG/1.1/DTD/svg11.dtd">
<svg version="1.1" id="Layer_1" xmlns="http://www.w3.org/2000/svg" xmlns:xlink="http://www.w3.org/1999/xlink" x="0px" y="0px"
	 width="1000px" height="1200px" viewBox="20.5 -19.5 1000 1200" enable-background="new 20.5 -19.5 1000 1200"
	 xml:space="preserve">
<g>
	<path fill="#252625" d="M306.793,413.383c12.925-70.563-6.508-103.141-6.508-103.141l15.08-27.686l-26.947-6.934l-1.59-24.862
		l-128.49,13.331l1.879,18.125c-37.881,27.975-55.464,78.692-49.502,136.214L80.4,424.396l9.467,65.991l35.794-0.84l2.228,62.754
		l40.243,8.527l14.994-72.883l34.779,0.825l10.807,67.33l43.979-3.18l7.385-71.602l50.769-7.924l0.92-55.177L306.793,413.383z"/>
	<path fill="#FFFFFF" d="M234.937,304.074c-31.304-0.009-56.689,25.184-56.698,56.268c-0.01,31.082,25.361,56.285,56.667,56.295
		c31.304,0.008,56.69-25.18,56.698-56.264C291.613,329.289,266.243,304.085,234.937,304.074z M222.461,382.008
		c0,2.664-2.161,4.404-4.824,4.404h-2.369c-2.664,0-4.823-1.744-4.823-4.408l0.014-43.893c0-2.665,2.16-5.041,4.824-5.041h2.369
		c2.664,0,4.823,2.378,4.823,5.043L222.461,382.008z M259.264,382.012c0,2.666-2.162,4.4-4.826,4.4h-2.369
		c-2.664,0-4.824-1.738-4.821-4.402l0.012-43.896c0.001-2.665,2.162-5.043,4.826-5.043h2.369c2.664,0,4.823,2.381,4.823,5.047
		L259.264,382.012z"/>
</g>
<polygon fill="#252625" points="409.38,121.559 382.841,118.278 384.232,43.898 49.468,37.632 47.344,151.064 382.109,157.331 
	382.415,140.951 406.495,140.333 "/>
<path fill="#252625" d="M453.557,473.375c-24.218-49.674-15.399-83.875-2.048-135.646c6.089-23.616,12.994-50.385,18.542-84.459
	c4.026-24.731,2.204-46.627-5.416-65.079c-6.067-14.694-15.824-27.286-28.999-37.429c-22.547-17.357-47.479-21.556-47.729-21.596
	l0.886-5.463c1.073,0.175,26.575,4.473,50.219,22.675c13.954,10.742,24.297,24.1,30.74,39.701
	c8.02,19.417,9.957,42.322,5.763,68.082c-5.592,34.325-12.525,61.221-18.646,84.955c-13.507,52.379-21.661,83.998,1.667,131.838
	L453.557,473.375z"/>
<g>
	<path fill="#252625" d="M806.793,413.383c12.925-70.563-6.508-103.141-6.508-103.141l15.08-27.686l-26.947-6.934l-1.59-24.861
		l-128.489,13.33l1.88,18.126c-37.882,27.975-55.465,78.692-49.503,136.214l-30.314,5.966l9.467,65.991l35.794-0.84l2.228,62.754
		l40.243,8.527l14.993-72.883l34.779,0.826l10.808,67.329l43.979-3.18l7.385-71.602l50.769-7.924l0.92-55.177L806.793,413.383z"/>
	<path fill="#FFFFFF" d="M734.938,304.074c-31.305-0.01-56.688,25.184-56.698,56.268c-0.011,31.082,25.36,56.285,56.668,56.295
		c31.304,0.008,56.688-25.18,56.696-56.264C791.613,329.289,766.242,304.085,734.938,304.074z M722.461,382.008
		c0,2.664-2.161,4.404-4.824,4.404h-2.369c-2.664,0-4.821-1.744-4.821-4.408l0.014-43.893c0-2.665,2.159-5.041,4.824-5.041h2.368
		c2.662,0,4.822,2.378,4.822,5.043L722.461,382.008z M759.264,382.012c0,2.666-2.161,4.4-4.824,4.4h-2.369
		c-2.663,0-4.823-1.738-4.821-4.402l0.012-43.896c0.002-2.665,2.162-5.043,4.826-5.043h2.369c2.664,0,4.822,2.381,4.822,5.047
		L759.264,382.012z"/>
</g>
<polygon fill="#252625" points="909.38,121.559 882.841,118.277 884.232,43.898 549.469,37.632 547.344,151.064 882.109,157.331 
	882.415,140.951 906.495,140.332 "/>
<path fill="#252625" d="M948.521,473.885c-22.949-49.937-13.14-83.599,1.718-134.557c6.773-23.245,14.457-49.592,20.979-83.223
	c4.733-24.408,3.513-46.17-3.63-64.681c-5.688-14.74-15.14-27.501-28.094-37.931c-22.17-17.846-47.104-22.711-47.354-22.759
	l1.042-5.392c1.073,0.203,26.576,5.184,49.824,23.899c13.721,11.045,23.74,24.582,29.78,40.232
	c7.516,19.479,8.826,42.244,3.896,67.668c-6.572,33.876-14.29,60.351-21.1,83.709c-15.028,51.556-24.101,82.678-1.994,130.771
	L948.521,473.885z"/>
<g>
	<g>
		<path fill="#252625" d="M509.069,522.387c-2.245-6.66-24.969-43.694-27.352-47.867c-1.951-3.409-7.689-3.715-14.204-1.153
			c-5.661-6.549-12.812-20.496-12.812-20.496l-14.613,5.361l8.996,25.264l-13.18,7.531l35.693,62.467l25.91-14.808l0.521-0.297
			l0.72-0.409C506.96,533.285,511.314,529.051,509.069,522.387z"/>
		<polygon fill="#252625" points="469.14,554.896 433.445,492.43 425.494,496.973 431.444,507.383 410.355,519.434 416.307,529.842 
			437.392,517.795 449.748,539.418 428.663,551.467 434.61,561.877 455.696,549.83 461.188,559.441 		"/>
	</g>
	
		<rect x="451.102" y="486.965" transform="matrix(0.8685 -0.4958 0.4958 0.8685 -199.7293 293.1335)" fill="#FFFFFF" width="2.833" height="71.947"/>
</g>
<g>
	<g>
		<path fill="#252625" d="M990.599,542.711c-0.529-7.008-13.396-48.509-14.676-53.141c-1.049-3.787-6.535-5.5-13.479-4.628
			c-3.867-7.745-7.354-23.026-7.354-23.026l-15.484,1.584l2.476,26.703l-14.631,4.042l19.154,69.35l28.765-7.945l0.577-0.16
			l0.799-0.22C985.862,552.75,991.128,549.724,990.599,542.711z"/>
		<polygon fill="#252625" points="943.876,564.348 924.721,494.999 915.894,497.438 919.087,508.994 895.676,515.462 
			898.87,527.017 922.278,520.553 928.909,544.559 905.501,551.024 908.691,562.581 932.101,556.117 935.048,566.787 		"/>
	</g>
	
		<rect x="934.303" y="493.297" transform="matrix(0.964 -0.2657 0.2657 0.964 -107.0042 267.6894)" fill="#FFFFFF" width="2.833" height="71.943"/>
</g>
<polygon fill="#252625" points="908.046,721.559 881.507,718.277 882.898,643.898 548.135,637.632 546.01,751.064 880.775,757.331 
	881.081,740.951 905.161,740.332 "/>
<path fill="none" stroke="#FFFFFF" stroke-width="5" stroke-miterlimit="10" d="M575.287,661.076l-3.617,56.105
	c0,0,27.065,2.333,31.989-0.79"/>
<path fill="none" stroke="#FFFFFF" stroke-width="5" stroke-miterlimit="10" d="M613.42,674.895c0,0-6.387,28.674-4.335,33.471
	c2.053,4.796,10.947,18.018,22.533-2.664c11.584-20.682-3.105-48.271-23.608-29.458"/>
<path fill="none" stroke="#FFFFFF" stroke-width="5" stroke-miterlimit="10" d="M669.854,672.7c0,0-7.5-7.64-12.81,1.017
	c-5.31,8.654-17.711,49.623,1.62,48.749c19.332-0.876,14.708-26.816,14.708-26.816l-28.041,1.886"/>
<path fill="none" stroke="#FFFFFF" stroke-width="5" stroke-miterlimit="10" d="M685.507,676.584c0,0,19.472-1.399,23.198-1.177"/>
<path fill="none" stroke="#FFFFFF" stroke-width="5" stroke-miterlimit="10" d="M683.074,717.377c0,0,22.538-1.502,27.586-0.632"/>
<path fill="none" stroke="#FFFFFF" stroke-width="5" stroke-miterlimit="10" d="M697.31,672.581c0,0-5.812,34.718-2.872,48.158"/>
<g>
	<path fill="none" stroke="#FFFFFF" stroke-width="5" stroke-miterlimit="10" d="M715.596,670.907c0,0,23.756-0.771,34.938,2.084"/>
	<line fill="none" stroke="#FFFFFF" stroke-width="5" stroke-miterlimit="10" x1="729.765" y1="727.278" x2="731.796" y2="668.05"/>
</g>
<path fill="none" stroke="#FFFFFF" stroke-width="5" stroke-linejoin="bevel" stroke-miterlimit="10" d="M755.072,725.826
	l7.168-52.999c0,0,16.736,37.49,16.826,37.694c0.092,0.201,1.79,8.495,0.181,13.073"/>
<path fill="none" stroke="#FFFFFF" stroke-width="5" stroke-linejoin="bevel" stroke-miterlimit="10" d="M756.262,705.877
	c0,0,4.396-0.771,9.72-1.521c6.381-0.899,14.096-1.765,17.158-1.218"/>
<polyline fill="none" stroke="#FFFFFF" stroke-width="5" stroke-linejoin="bevel" stroke-miterlimit="10" points="795.144,728.715 
	796.816,673.997 817.473,727.333 829.538,677.712 "/>
<line fill="none" stroke="#FFFFFF" stroke-width="5" stroke-linejoin="bevel" stroke-miterlimit="10" x1="841.042" y1="673.207" x2="838.304" y2="730.312"/>
<path fill="none" stroke="#FFFFFF" stroke-width="5" stroke-linejoin="bevel" stroke-miterlimit="10" d="M868.207,685.241
	l-28.149,15.674c0,0,19.396,13.513,20.912,27.294"/>
<path fill="#252625" d="M805.459,1013.383c12.925-70.563-6.508-103.141-6.508-103.141l15.08-27.687l-26.947-6.934l-1.59-24.861
	l-128.489,13.33l1.88,18.126c-37.882,27.975-55.465,78.692-49.503,136.214l-30.314,5.966l9.467,65.991l35.794-0.84l2.228,62.754
	l40.243,8.527l14.993-72.883l34.779,0.825l10.808,67.33l43.979-3.18l7.386-71.602l50.769-7.925l0.92-55.176L805.459,1013.383z
	 M733.588,1012.023c-28.536,0-51.668-23.134-51.668-51.668c0-28.535,23.132-51.668,51.668-51.668
	c28.535,0,51.667,23.133,51.667,51.668C785.255,988.89,762.123,1012.023,733.588,1012.023z"/>
<path fill="#252625" stroke="#FFFFFF" stroke-width="5" stroke-miterlimit="10" d="M817.666,978.5l-32.8-11.902
	c0.247-2.048,0.389-4.128,0.389-6.241c0-28.535-23.132-51.669-51.667-51.669c-28.536,0-51.668,23.134-51.668,51.668
	c0,28.535,23.132,51.668,51.668,51.668c17.779,0,33.459-8.981,42.754-22.654l35.824,7.95L817.666,978.5z"/>
<path fill="none" stroke="#252625" stroke-width="5" stroke-miterlimit="10" d="M893.252,730.312
	c42.914-0.812,86.995,34.754,83.995,115.75c-3,80.995-35.581,142.438-87.581,149.938S772.89,976.541,772.89,976.541"/>
<polygon fill="#252625" points="408.046,721.559 381.507,718.277 382.898,643.898 48.135,637.632 46.01,751.064 380.775,757.331 
	381.081,740.951 405.161,740.332 "/>
<path fill="none" stroke="#FFFFFF" stroke-width="5" stroke-miterlimit="10" d="M75.287,661.076l-3.617,56.105
	c0,0,27.065,2.333,31.989-0.79"/>
<path fill="none" stroke="#FFFFFF" stroke-width="5" stroke-miterlimit="10" d="M113.42,674.895c0,0-6.387,28.674-4.335,33.471
	c2.053,4.796,10.947,18.018,22.533-2.664c11.584-20.682-3.105-48.271-23.608-29.458"/>
<path fill="none" stroke="#FFFFFF" stroke-width="5" stroke-miterlimit="10" d="M169.854,672.7c0,0-7.5-7.64-12.81,1.017
	c-5.31,8.654-17.711,49.623,1.62,48.749c19.332-0.876,14.708-26.816,14.708-26.816l-28.041,1.886"/>
<g>
	<path fill="none" stroke="#FFFFFF" stroke-width="5" stroke-miterlimit="10" d="M215.596,670.907c0,0,23.756-0.771,34.938,2.084"/>
	<line fill="none" stroke="#FFFFFF" stroke-width="5" stroke-miterlimit="10" x1="229.765" y1="727.278" x2="231.796" y2="668.05"/>
</g>
<path fill="none" stroke="#FFFFFF" stroke-width="5" stroke-linejoin="bevel" stroke-miterlimit="10" d="M255.072,725.826
	l7.168-52.999c0,0,16.736,37.49,16.826,37.694c0.092,0.201,1.79,8.495,0.181,13.073"/>
<path fill="none" stroke="#FFFFFF" stroke-width="5" stroke-linejoin="bevel" stroke-miterlimit="10" d="M256.262,705.877
	c0,0,4.396-0.771,9.72-1.521c6.381-0.899,14.096-1.765,17.158-1.218"/>
<polyline fill="none" stroke="#FFFFFF" stroke-width="5" stroke-linejoin="bevel" stroke-miterlimit="10" points="295.144,728.715 
	296.816,673.997 317.473,727.333 329.538,677.712 "/>
<path fill="#252625" d="M305.459,1013.383c12.925-70.563-6.508-103.141-6.508-103.141l15.08-27.687l-26.947-6.934l-1.59-24.861
	l-128.489,13.33l1.88,18.126c-37.882,27.975-55.465,78.692-49.503,136.214l-30.314,5.966l9.467,65.991l35.794-0.84l2.228,62.754
	l40.243,8.527l14.993-72.883l34.779,0.825l10.808,67.33l43.979-3.18l7.386-71.602l50.769-7.925l0.92-55.176L305.459,1013.383z
	 M233.588,1012.023c-28.536,0-51.668-23.134-51.668-51.668c0-28.535,23.132-51.668,51.668-51.668
	c28.535,0,51.667,23.133,51.667,51.668C285.255,988.89,262.123,1012.023,233.588,1012.023z"/>
<path fill="#252625" stroke="#FFFFFF" stroke-width="5" stroke-miterlimit="10" d="M317.666,978.5l-32.8-11.902
	c0.247-2.048,0.389-4.128,0.389-6.241c0-28.535-23.132-51.669-51.667-51.669c-28.536,0-51.668,23.134-51.668,51.668
	c0,28.535,23.132,51.668,51.668,51.668c17.779,0,33.459-8.981,42.754-22.654l35.824,7.95L317.666,978.5z"/>
<path fill="none" stroke="#252625" stroke-width="5" stroke-miterlimit="10" d="M393.252,730.312
	c42.914-0.812,86.995,34.754,83.995,115.75c-3,80.995-35.581,142.438-87.581,149.938S272.89,976.541,272.89,976.541"/>
</svg>
