<?xml version="1.0" encoding="utf-8"?>
<!-- Generator: Adobe Illustrator 16.0.0, SVG Export Plug-In . SVG Version: 6.00 Build 0)  -->
<!DOCTYPE svg PUBLIC "-//W3C//DTD SVG 1.1//EN" "http://www.w3.org/Graphics/SVG/1.1/DTD/svg11.dtd">
<svg version="1.1" id="Layer_1" xmlns="http://www.w3.org/2000/svg" xmlns:xlink="http://www.w3.org/1999/xlink" x="0px" y="0px"
	 width="950px" height="400px" viewBox="0 0 950 400" enable-background="new 0 0 950 400" xml:space="preserve">
<path fill="#1B1B17" d="M182.523,326.715c-2.908,0.652-7.238,1.051-11.73,1.295c0.002-0.361,0.006-0.609,0.005-0.703l-6.018-0.145
	c-0.003,0.035-0.007,0.428-0.009,1.098c-6.783,0.197-12.595,0.125-12.705,0.121l0.041,5.414c0.453,0.006,5.988,0.076,12.615-0.111
	c-0.117,10.629-0.428,31.016-1.22,35.994l5.962,0.883c0.858-5.4,1.175-26.498,1.283-37.121c4.992-0.266,9.951-0.711,13.346-1.471
	L182.523,326.715z"/>
<path fill="#1B1B17" d="M193.188,361.916l-1.55,10.371l5.161,0.771l1.682-11.287c3.511-0.26,7.01-0.752,10.055-1.32
	c1.1-0.205,2.115-0.412,3.07-0.617c1.203,4.117,2.047,8.082,2.207,11.479l5.214-0.244c-0.177-3.746-1.067-8.037-2.337-12.438
	c0.68-0.178,1.127-0.311,1.225-0.334l-1.271-4.461c-0.027,0.006-0.518,0.145-1.344,0.359c-4.557-13.518-11.676-26.771-12.107-27.562
	l-4.873,0.855l-4.454,29.846c-0.698-0.002-1.392-0.023-2.063-0.064l-0.281,4.633C192.06,361.936,192.631,361.906,193.188,361.916z
	 M199.18,357.092l3.09-20.684c2.401,5.006,5.518,11.992,7.918,18.977C207.057,356.041,203.139,356.73,199.18,357.092z"/>
<polygon fill="#1B1B17" points="229.967,358.785 230.976,358.713 232.745,358.564 "/>
<path fill="#1B1B17" d="M246.008,328.162c-3.773-0.102-7.021,1.137-9.675,3.666c-0.715,0.678-1.345,1.434-1.916,2.229
	c-0.168-2.229-0.284-3.723-0.304-3.955l-1.939,0.133l-4.141,0.344c0.043,0.535,0.6,7.479,1.154,15.586
	c0.644,9.393,0.944,14.58,1.145,24.844l6.098-0.119c-0.167-8.541-0.406-13.637-0.846-20.438c0.088-2.834,1.125-10.574,4.947-14.219
	c1.461-1.391,3.217-2.039,5.32-1.986c1.334,0.035,2.432,0.566,3.43,1.672c4.165,4.613,5.729,17.826,4.307,36.266l6.074,0.473
	c1.622-20.98-0.347-34.713-5.852-40.82C251.709,329.512,249.01,328.238,246.008,328.162z"/>
<path fill="#1B1B17" d="M279.297,353.287l20.649-13.623l-3.359-5.09l-19.759,13.047c0.139-12.055,0.136-24.576,0.134-27.012
	l-6.094,0.002c0,17.846-0.216,45.807-0.809,49.697l6.024,0.928c0.251-1.66,0.429-6.408,0.556-12.371
	c10.029,6.854,12.468,11.504,12.491,11.562l5.515-2.615C294.328,367.123,291.388,361.377,279.297,353.287z"/>
<polygon fill="#1B1B17" points="25.533,366.832 25.827,326.262 20.271,326.221 19.939,372.42 42.207,372.299 42.178,366.748 "/>
<path fill="#1B1B17" d="M59.443,331.086l0.012,0.1c-6.059,1.107-12.387,7.973-12.521,17.148c-0.122,8.33-0.311,20.92,12.662,23.613
	c1.007,0.213,2,0.289,2.965,0.248c2.322-0.109,4.504-0.941,6.42-2.477c6.622-5.307,8.229-17.174,8.29-21.303
	c0.06-4.309-2.378-9.25-6.374-12.893C67.373,332.303,63.205,330.689,59.443,331.086z M65.508,365.383
	c-1.434,1.146-2.943,1.504-4.779,1.121c-7.871-1.629-8.381-8.525-8.239-18.09c0.099-6.963,5.071-11.639,8.469-11.824
	c1.962,0.111,4.171,1.182,6.194,3.029c2.769,2.529,4.604,6.029,4.566,8.713C71.645,353.266,69.621,362.09,65.508,365.383z"/>
<path fill="#1B1B17" d="M111.04,352.77l-16.698,2.104l0.693,5.51l11.896-1.496c0.097,1.961-0.523,3.967-1.799,5.645
	c-1.377,1.818-3.018,2.57-4.016,2.512c-2.257-0.127-5.132-0.541-7.367-2.637c-2.959-2.77-4.244-7.912-3.825-15.291
	c0.888-15.549,9.698-15.51,10.599-15.451l5.99,0.635l0.588-5.52l-6.059-0.643c-0.221-0.023-5.292-0.377-9.833,3.576
	c-4.084,3.559-6.384,9.311-6.826,17.088c-0.521,9.096,1.354,15.713,5.579,19.658c3.582,3.348,7.904,3.957,10.845,4.129
	c0.261,0.014,0.524,0.016,0.79,0.004c2.871-0.133,5.796-1.848,7.967-4.701c2.871-3.785,3.701-8.633,2.218-12.98L111.04,352.77z"/>
<path fill="#1B1B17" d="M142.896,365.918c-2.388,0.154-4.868,0.303-7.226,0.422c-0.729-10.684-1.55-23.916-1.92-32.008
	c3.514-0.217,6.35-0.43,6.611-0.453l-0.42-5.535c-0.062,0.004-2.872,0.215-6.371,0.438c-0.008-0.758-0.004-1.346,0.028-1.615
	l-5.483-0.838c-0.074,0.445-0.088,1.41-0.071,2.76c-2.964,0.139-5.723,0.225-7.205,0.148l-0.308,5.541
	c1.602,0.088,4.398,0.016,7.396-0.123c0.097-0.004,0.196-0.008,0.297-0.012c0.397,9.24,1.346,23.723,1.902,31.939
	c-3.002,0.104-5.249,0.125-5.896,0.014l-1.205,5.426c1.396,0.312,6.082,0.193,10.83-0.023c3.556-0.166,7.152-0.389,9.41-0.539
	L142.896,365.918z"/>
<path fill="none" stroke="#231F20" stroke-miterlimit="10" d="M42.208,82.138"/>
<path fill="#231F20" d="M39.438,43.189l4,9.812c-4.814,7.088-14.63,39.92-4.191,82.105l79.687-2.589l14.923-0.485l15.791-0.513
	c0,0,3.141-56.729-14.182-78.373l8.375-23.59L120.962,32.4l-2.259-7.931L39.438,43.189z"/>
<path fill="#231F20" d="M111.599,130.167l1,7.561c0,0,21.345,2.963,28.923,2.076v-11.387L111.599,130.167z"/>
<polyline fill="#231F20" points="47.508,135.009 51.83,141.18 56.82,138.321 "/>
<path fill="#231F20" d="M53.633,136.509c0,0,3.629,5.039,4.016,5.297c0.385,0.26,4.883-1.082,4.883-1.082l0.267-6.746"/>
<path fill="none" stroke="#231F20" stroke-width="1.25" stroke-miterlimit="10" d="M59.977,139.804c0,0,2.225,5.555-2.373,15.085
	c-4.598,9.528-2.16,21.147-0.193,26.555"/>
<path fill="#FFFFFF" stroke="#231F20" stroke-width="1.25" stroke-miterlimit="10" d="M58.578,175.555l-4.473,2.459l7.889,13.656
	l3.514-1.912C65.508,189.758,60.533,179.073,58.578,175.555z"/>
<path fill="none" stroke="#231F20" stroke-width="1.25" stroke-miterlimit="10" d="M52.285,137.728c0,0,1.988,7.262,12.48,18.334
	c10.492,11.072,9.306,15.281,9.306,15.281"/>
<path fill="#231F20" d="M58.732,192.247c0,0,4.523-13.242,26.645-19.947c19.875-12.791,30.723,3.068,30.723,3.068
	s9.185-6.578,18.812,2.402c6.291,5.521,6.609,10.727,6.609,10.727"/>
<path fill="#FFFFFF" stroke="#231F20" stroke-width="1.25" stroke-miterlimit="10" d="M76.592,168.217l-2.812,0.688l-2.621,0.35
	c0,0,2.173,11.951,2.539,14.848c0,0,1.107,0.375,2.311,0.375s2.812-0.594,2.812-0.594S78.24,173.088,76.592,168.217z"/>
<path fill="#FFFFFF" stroke="#231F20" stroke-width="1.8761" stroke-miterlimit="10" d="M122.403,138.443
	c1.893,7.111-0.895,36.061-0.895,36.061l9.596,1.551c0,0,3.237-17.746,2.688-36.307L122.403,138.443z"/>
<path fill="#231F20" d="M118.238,141.72c0,0,7.807,2.52,20.086,2.188l-0.283-10.46l-20.011,0.541L118.238,141.72z"/>
<polygon fill="#231F20" points="44.291,132.667 45.828,137.728 65.273,136.926 65.273,132.667 "/>
<path fill="none" stroke="#231F20" stroke-width="1.5" stroke-miterlimit="10" d="M120.502,165.272c0,0,5.504,1.119,14.359,1.523"/>
<path fill="none" stroke="#231F20" stroke-width="2" stroke-miterlimit="10" d="M120.695,159.758c0,0,5,2.25,14.25,1.438"/>
<path fill="none" stroke="#231F20" stroke-width="2.0224" stroke-miterlimit="10" d="M120.727,153.321c0,0,7.223,1.5,14.188,1.25"/>
<path fill="none" stroke="#231F20" stroke-width="3" stroke-miterlimit="10" d="M119.696,172.717c0,0,5.925,3.908,13.362,2.471"/>
<path fill="none" stroke="#231F20" stroke-width="1.25" stroke-miterlimit="10" d="M120.502,168.827c0,0,7.818,2.609,13.16,1.555"/>
<path fill="none" stroke="#231F20" stroke-width="2" stroke-miterlimit="10" d="M385.542,133.628c0,0,20,55.333-11.334,97.999
	c-31.332,42.668-109.969,27.98-160.017,27.514c-50.049-0.469,65.976,21.406,105.874,5.062c39.896-16.352-66.947-4.086-83.688-0.777
	c-16.736,3.311,53.715,0.777,65.781,0.977c12.062,0.191-7.008-4.867-61.305,1.943c-54.298,6.812-54.848-10.312-60.102-21.992
	c-5.254-11.676-10.509-52.541-21.601-105.086c-11.094-52.546-29.985-41.84-29.985-41.84l0,0l-4.481,0.923"/>
<path fill="#231F20" d="M265.131,51.039c0,0-4.705,43.122,0,98.004l11.89,0.431l1.419,10.033h123.167l0.98-8.771l13.605-1.433
	l2.09-94.347c0,0-85.998-3.602-85.977-3.602C332.327,51.357,274.79,50.187,265.131,51.039z"/>
<polygon fill="none" stroke="#FFFFFF" stroke-width="1.6383" stroke-miterlimit="10" points="408.374,80.118 374.657,79.596 
	374.896,70.013 408.481,71.842 "/>
<polygon fill="none" stroke="#FFFFFF" stroke-width="1.6383" stroke-miterlimit="10" points="409.062,96.404 374.567,96.684 
	374.435,88.66 408.937,87.778 "/>
<polygon fill="#FFFFFF" points="407.966,113.813 374.979,113.16 375.077,103.622 408.073,103.228 "/>
<path fill="#231F20" d="M451.341,165.035h-26.267l-0.552,6.733c-88.489-1.021-150.25-0.333-150.25-0.333l-0.953-6.4h-26.614v-7.057
	h204.636V165.035z"/>
<path fill="#231F20" d="M269.792,209.949c-0.425-24.083-4.942-47.534-4.988-47.768l15.969-0.675c0,0-4.361,23.596-3.926,48.319
	L269.792,209.949z"/>
<path fill="#231F20" d="M428.601,211.59l-7.051-0.273c1.562-40.272-4.527-48.799-4.527-48.799l15.402-0.186
	C432.402,162.43,430.118,172.481,428.601,211.59z"/>
<path fill="none" stroke="#231F20" stroke-width="3" stroke-miterlimit="10" d="M273.505,191.996
	c-0.002-0.478-0.186,84.145-0.186,84.145s-7.404-0.002-7.404,8.623"/>
<path fill="none" stroke="#231F20" stroke-width="3" stroke-miterlimit="10" d="M425.075,200.79l1.959,75.269
	c0,0,9.594-0.979,9.594,5.783"/>
<path fill="none" stroke="#231F20" stroke-width="1.9383" stroke-miterlimit="10" d="M269.71,230.664c0,0,140.31-0.785,160.244,0"/>
<line fill="none" stroke="#231F20" stroke-width="1.9601" stroke-miterlimit="10" x1="273.116" y1="230.664" x2="427.034" y2="167.94"/>
<line fill="none" stroke="#231F20" stroke-width="1.9601" stroke-miterlimit="10" x1="425.075" y1="230.314" x2="268.267" y2="167.94"/>
<circle fill="#231F20" cx="273.288" cy="282.9" r="6.674"/>
<circle fill="#231F20" cx="429.954" cy="282.822" r="6.674"/>
<g>
	<path fill="#FFFFFF" d="M363.734,137.426c-37.845,2.132-56.176,1.702-90.671,0.684c-2.532-25.181-2.02-53.394,0.464-78.542
		c29.957-0.934,85.457-0.001,91.281,1.53C365.277,67.101,366.5,87.773,363.734,137.426z"/>
</g>
<path fill="none" stroke="#FFFFFF" stroke-width="1.5681" stroke-miterlimit="10" d="M382.474,126.09c0,0-6.793,3.527-1.16,9.268
	C388.437,139.516,390.755,124.301,382.474,126.09z"/>
<path fill="#FFFFFF" d="M400.114,126.09c0,0-6.793,3.527-1.16,9.268C406.077,139.516,408.396,124.301,400.114,126.09z"/>
<g>
	<path fill="#1B1B17" d="M370.138,324.936l-11.728,45.248l5.509,1.422l3.03-11.707c4.201-0.9,11.093-2.234,15.496-2.541l4.068,10.24
		l5.292-2.102l-16.271-40.895L370.138,324.936z M368.545,353.748l4.923-18.969l6.79,17.062
		C376.433,352.246,371.941,353.061,368.545,353.748z"/>
	<path fill="#1B1B17" d="M403.742,324.785l-3.962-0.359l0.131,30.023l-0.615,16.748l2.29,0.533c2.483,0.576,4.704,0.85,6.666,0.816
		c2.767-0.047,5.013-0.705,6.798-1.973c2.295-1.627,3.648-4.143,4.015-7.471c0.236-2.111-0.358-4.111-1.733-5.781
		c-0.699-0.859-1.581-1.598-2.557-2.215c4.657-2.02,8.647-5.627,9.201-11.721C425.375,327.834,410.311,325.711,403.742,324.785z
		 M411.767,365.928c-0.948,0.668-2.852,1.264-6.609,0.693l0.33-8.908c2.775,0.525,6.127,1.602,7.445,3.219
		c0.408,0.488,0.545,0.947,0.479,1.537C413.142,364.951,412.104,365.684,411.767,365.928z M418.313,342.877
		c-0.602,6.604-8.431,8.238-12.719,8.645l-0.088-20.703C414.203,332.33,419.018,335.074,418.313,342.877z"/>
	<path fill="#1B1B17" d="M339.394,364.303c-0.271-10.809-1.046-34.164-2.603-37.699l-5.23,2.262c0.9,2.455,1.83,21.547,2.216,38.588
		l0.067,3.018l19.676-1.596l-0.46-5.68L339.394,364.303z"/>
	<path fill="#1B1B17" d="M443.3,349.539c-0.332-0.191-0.643-0.363-0.895-0.537l-0.575-0.363c-2.291-1.432-5.422-3.398-5.677-8.203
		c-0.209-3.902,4.649-4.57,5.437-4.666c0.977-0.172,4.312-0.344,5.595,4.652l5.515-1.428c-2.168-8.373-8.756-9.434-12.072-8.84
		c-3.762,0.434-10.553,3.16-10.155,10.578c0.408,7.76,5.763,11.115,8.327,12.729l0.508,0.322c0.348,0.217,0.733,0.441,1.148,0.688
		c2.676,1.545,4.568,2.908,4.479,6.314c-0.021,0.762-0.699,1.295-1.269,1.605c-1.514,0.83-3.721,0.877-4.992,0.092
		c-0.538-0.324-1.233-0.951-1.197-2.625l-5.701-0.141c-0.087,3.322,1.305,6.029,3.924,7.621c1.582,0.971,3.505,1.434,5.463,1.4
		c1.791-0.029,3.608-0.479,5.223-1.354c2.629-1.438,4.172-3.791,4.236-6.461C450.807,353.881,445.919,351.057,443.3,349.539z"/>
</g>
<path fill="#231F20" d="M281.849,80.681l-2.385-1.821l3.981-5.211l-3.966-3.793l2.074-2.168c5.303,4.332,5.905,5.648,5.905,5.648
	S286.591,74.843,281.849,80.681z"/>
<path fill="#231F20" d="M303.246,81.052c-4.59,0.381-9.337,0.005-9.337,0.005s-0.313-7.099-0.007-14.125
	c5.748-0.406,9.336-0.005,9.336-0.005S303.514,77.238,303.246,81.052z"/>
<path fill="#FFFFFF" d="M133.855,131.047c0,0,4.917-35.41-10.833-48.928C107.272,68.6,79.105,70.403,71.605,90.23
	c-7.5,19.828,0.168,42.801,0.168,42.801L133.855,131.047z"/>
<circle fill="#231F20" cx="90.791" cy="115.613" r="7.981"/>
<polygon fill="#231F20" points="94.022,129.768 88.439,129.768 87.355,119.268 94.439,119.352 "/>
<polygon fill="#231F20" points="22.812,192.356 173.26,187.463 175.195,223.758 151.652,229.721 153.195,268.758 131.195,271.258 
	121.032,239.998 85.918,241.699 80.508,280.211 53.509,279.639 50.679,234.148 25.64,231.561 "/>
<path fill="#FFFFFF" d="M78.82,191.535l54.238-1.142c0,0-5.952,12.125-22.369,12.375S82.369,196.926,78.82,191.535z"/>
<path fill="none" stroke="#FFFFFF" stroke-width="0.9005" stroke-miterlimit="10" d="M134.615,183.963
	c-2.424-0.057-3.145,1.567,0.314,3.112S137.039,184.021,134.615,183.963z"/>
<path fill="none" stroke="#FFFFFF" stroke-width="1.8623" stroke-miterlimit="10" d="M72.906,186.59c0,0,2.953,0.484,6.699-0.664"/>
<path fill="none" stroke="#FFFFFF" stroke-miterlimit="10" d="M120.502,175.506c0,0,6.021,3.296,11.396,1.841"/>
<path fill="none" stroke="#231F20" stroke-width="4" stroke-miterlimit="10" d="M90.791,119.613c0,0,0.021,60.045,24.386,118.693
	c24.364,58.65,138.252,27.938,165.551,25.746c27.299-2.188,78.967-21.162,74.006-118.658"/>
<path fill="none" stroke="#FFFFFF" stroke-width="3" stroke-miterlimit="10" d="M104.85,175.651
	c2.84,1.162,10.166,7.542,10.166,7.542"/>
<path fill="none" stroke="#FFFFFF" stroke-width="3" stroke-miterlimit="10" d="M107.023,184.676c0,0,2.738-8.365,4.418-10.564"/>
<path fill="#1B1B17" d="M657.523,326.715c-2.908,0.652-7.238,1.051-11.73,1.295c0.002-0.361,0.006-0.609,0.005-0.703l-6.018-0.145
	c-0.003,0.035-0.007,0.428-0.009,1.098c-6.783,0.197-12.595,0.125-12.705,0.121l0.041,5.414c0.453,0.006,5.988,0.076,12.615-0.111
	c-0.117,10.629-0.428,31.016-1.22,35.994l5.962,0.883c0.858-5.4,1.175-26.498,1.283-37.121c4.992-0.266,9.951-0.711,13.346-1.471
	L657.523,326.715z"/>
<path fill="#1B1B17" d="M668.188,361.916l-1.55,10.371l5.161,0.771l1.682-11.287c3.511-0.26,7.01-0.752,10.055-1.32
	c1.1-0.205,2.115-0.412,3.07-0.617c1.203,4.117,2.047,8.082,2.207,11.479l5.214-0.244c-0.177-3.746-1.067-8.037-2.337-12.438
	c0.68-0.178,1.127-0.311,1.225-0.334l-1.271-4.461c-0.027,0.006-0.518,0.145-1.344,0.359c-4.557-13.518-11.676-26.771-12.107-27.562
	l-4.873,0.855l-4.454,29.846c-0.698-0.002-1.392-0.023-2.063-0.064l-0.281,4.633C667.06,361.936,667.631,361.906,668.188,361.916z
	 M674.18,357.092l3.09-20.684c2.401,5.006,5.518,11.992,7.918,18.977C682.057,356.041,678.139,356.73,674.18,357.092z"/>
<polygon fill="#1B1B17" points="704.967,358.785 705.976,358.713 707.745,358.564 "/>
<path fill="#1B1B17" d="M721.008,328.162c-3.773-0.102-7.021,1.137-9.675,3.666c-0.715,0.678-1.345,1.434-1.916,2.229
	c-0.168-2.229-0.284-3.723-0.304-3.955l-1.939,0.133l-4.141,0.344c0.043,0.535,0.6,7.479,1.154,15.586
	c0.644,9.393,0.944,14.58,1.145,24.844l6.098-0.119c-0.167-8.541-0.406-13.637-0.846-20.438c0.088-2.834,1.125-10.574,4.947-14.219
	c1.461-1.391,3.217-2.039,5.32-1.986c1.334,0.035,2.432,0.566,3.43,1.672c4.165,4.613,5.729,17.826,4.307,36.266l6.074,0.473
	c1.622-20.98-0.347-34.713-5.852-40.82C726.709,329.512,724.01,328.238,721.008,328.162z"/>
<path fill="#1B1B17" d="M754.297,353.287l20.649-13.623l-3.359-5.09l-19.759,13.047c0.139-12.055,0.136-24.576,0.134-27.012
	l-6.094,0.002c0,17.846-0.216,45.807-0.809,49.697l6.024,0.928c0.251-1.66,0.429-6.408,0.556-12.371
	c10.029,6.854,12.468,11.504,12.491,11.562l5.515-2.615C769.328,367.123,766.388,361.377,754.297,353.287z"/>
<polygon fill="#1B1B17" points="500.533,366.832 500.827,326.262 495.271,326.221 494.939,372.42 517.207,372.299 517.178,366.748 
	"/>
<path fill="#1B1B17" d="M534.443,331.086l0.012,0.1c-6.059,1.107-12.387,7.973-12.521,17.148c-0.122,8.33-0.311,20.92,12.662,23.613
	c1.007,0.213,2,0.289,2.965,0.248c2.322-0.109,4.504-0.941,6.42-2.477c6.622-5.307,8.229-17.174,8.29-21.303
	c0.06-4.309-2.378-9.25-6.374-12.893C542.373,332.303,538.205,330.689,534.443,331.086z M540.508,365.383
	c-1.434,1.146-2.943,1.504-4.779,1.121c-7.871-1.629-8.381-8.525-8.239-18.09c0.099-6.963,5.071-11.639,8.469-11.824
	c1.962,0.111,4.171,1.182,6.194,3.029c2.769,2.529,4.604,6.029,4.566,8.713C546.645,353.266,544.621,362.09,540.508,365.383z"/>
<path fill="#1B1B17" d="M586.04,352.77l-16.698,2.104l0.693,5.51l11.896-1.496c0.097,1.961-0.523,3.967-1.799,5.645
	c-1.377,1.818-3.018,2.57-4.016,2.512c-2.257-0.127-5.132-0.541-7.367-2.637c-2.959-2.77-4.244-7.912-3.825-15.291
	c0.888-15.549,9.698-15.51,10.599-15.451l5.99,0.635l0.588-5.52l-6.059-0.643c-0.221-0.023-5.292-0.377-9.833,3.576
	c-4.084,3.559-6.384,9.311-6.826,17.088c-0.521,9.096,1.354,15.713,5.579,19.658c3.582,3.348,7.904,3.957,10.845,4.129
	c0.261,0.014,0.524,0.016,0.79,0.004c2.871-0.133,5.796-1.848,7.967-4.701c2.871-3.785,3.701-8.633,2.218-12.98L586.04,352.77z"/>
<path fill="#1B1B17" d="M617.896,365.918c-2.388,0.154-4.868,0.303-7.226,0.422c-0.729-10.684-1.55-23.916-1.92-32.008
	c3.514-0.217,6.35-0.43,6.611-0.453l-0.42-5.535c-0.062,0.004-2.872,0.215-6.371,0.438c-0.008-0.758-0.004-1.346,0.028-1.615
	l-5.483-0.838c-0.074,0.445-0.088,1.41-0.071,2.76c-2.964,0.139-5.723,0.225-7.205,0.148l-0.308,5.541
	c1.602,0.088,4.398,0.016,7.396-0.123c0.097-0.004,0.196-0.008,0.297-0.012c0.397,9.24,1.346,23.723,1.902,31.939
	c-3.002,0.104-5.249,0.125-5.896,0.014l-1.205,5.426c1.396,0.312,6.082,0.193,10.83-0.023c3.556-0.166,7.152-0.389,9.41-0.539
	L617.896,365.918z"/>
<path fill="none" stroke="#231F20" stroke-miterlimit="10" d="M517.208,82.138"/>
<path fill="#231F20" d="M514.438,43.189l4,9.812c-4.814,7.088-14.63,39.92-4.191,82.105l79.687-2.589l14.923-0.485l15.791-0.513
	c0,0,3.141-56.729-14.182-78.373l8.375-23.59L595.962,32.4l-2.259-7.931L514.438,43.189z"/>
<path fill="#231F20" d="M586.599,130.167l1,7.561c0,0,21.345,2.963,28.923,2.076v-11.387L586.599,130.167z"/>
<polyline fill="#231F20" points="522.508,135.009 526.83,141.18 531.82,138.321 "/>
<path fill="#231F20" d="M528.633,136.509c0,0,3.629,5.039,4.016,5.297c0.385,0.26,4.883-1.082,4.883-1.082l0.267-6.746"/>
<path fill="none" stroke="#231F20" stroke-width="1.25" stroke-miterlimit="10" d="M534.977,139.804c0,0,2.225,5.555-2.373,15.085
	c-4.598,9.528-2.16,21.147-0.193,26.555"/>
<path fill="#FFFFFF" stroke="#231F20" stroke-width="1.25" stroke-miterlimit="10" d="M533.578,175.555l-4.473,2.459l7.889,13.656
	l3.514-1.912C540.508,189.758,535.533,179.073,533.578,175.555z"/>
<path fill="none" stroke="#231F20" stroke-width="1.25" stroke-miterlimit="10" d="M527.285,137.728c0,0,1.988,7.262,12.48,18.334
	c10.492,11.072,9.306,15.281,9.306,15.281"/>
<path fill="#231F20" d="M533.732,192.247c0,0,4.523-13.242,26.645-19.947c19.875-12.791,30.723,3.068,30.723,3.068
	s9.185-6.578,18.812,2.402c6.291,5.521,6.609,10.727,6.609,10.727"/>
<path fill="#FFFFFF" stroke="#231F20" stroke-width="1.25" stroke-miterlimit="10" d="M551.592,168.217l-2.812,0.688l-2.621,0.35
	c0,0,2.173,11.951,2.539,14.848c0,0,1.107,0.375,2.311,0.375s2.812-0.594,2.812-0.594S553.24,173.088,551.592,168.217z"/>
<path fill="#FFFFFF" stroke="#231F20" stroke-width="1.8761" stroke-miterlimit="10" d="M597.403,138.443
	c1.893,7.111-0.895,36.061-0.895,36.061l9.596,1.551c0,0,3.237-17.746,2.688-36.307L597.403,138.443z"/>
<path fill="#231F20" d="M593.238,141.72c0,0,7.807,2.52,20.086,2.188l-0.283-10.46l-20.011,0.541L593.238,141.72z"/>
<polygon fill="#231F20" points="519.291,132.667 520.828,137.728 540.273,136.926 540.273,132.667 "/>
<path fill="none" stroke="#231F20" stroke-width="1.5" stroke-miterlimit="10" d="M595.502,165.272c0,0,5.504,1.119,14.359,1.523"/>
<path fill="none" stroke="#231F20" stroke-width="2" stroke-miterlimit="10" d="M595.695,159.758c0,0,5,2.25,14.25,1.438"/>
<path fill="none" stroke="#231F20" stroke-width="2.0224" stroke-miterlimit="10" d="M595.727,153.321c0,0,7.223,1.5,14.188,1.25"/>
<path fill="none" stroke="#231F20" stroke-width="3" stroke-miterlimit="10" d="M594.696,172.717c0,0,5.925,3.908,13.362,2.471"/>
<path fill="none" stroke="#231F20" stroke-width="1.25" stroke-miterlimit="10" d="M595.502,168.827c0,0,7.818,2.609,13.16,1.555"/>
<path fill="none" stroke="#231F20" stroke-width="2" stroke-miterlimit="10" d="M860.542,133.628c0,0,20,55.333-11.334,97.999
	c-31.332,42.668-109.969,27.98-160.017,27.514c-50.049-0.469,65.976,21.406,105.874,5.062c39.896-16.352-66.947-4.086-83.688-0.777
	c-16.736,3.311,53.715,0.777,65.781,0.977c12.062,0.191-7.008-4.867-61.305,1.943c-54.298,6.812-54.848-10.312-60.102-21.992
	c-5.254-11.676-10.509-52.541-21.601-105.086c-11.094-52.546-29.985-41.84-29.985-41.84l0,0l-4.481,0.923"/>
<path fill="#231F20" d="M740.131,51.039c0,0-4.705,43.122,0,98.004l11.89,0.431l1.419,10.033h123.167l0.98-8.771l13.605-1.433
	l2.09-94.347c0,0-85.998-3.602-85.977-3.602C807.327,51.357,749.79,50.187,740.131,51.039z"/>
<polygon fill="none" stroke="#FFFFFF" stroke-width="1.6383" stroke-miterlimit="10" points="883.374,80.118 849.657,79.596 
	849.896,70.013 883.481,71.842 "/>
<polygon fill="none" stroke="#FFFFFF" stroke-width="1.6383" stroke-miterlimit="10" points="884.062,96.404 849.567,96.684 
	849.435,88.66 883.937,87.778 "/>
<polygon fill="#FFFFFF" points="882.966,113.813 849.979,113.16 850.077,103.622 883.073,103.228 "/>
<path fill="#231F20" d="M926.341,165.035h-26.267l-0.552,6.733c-88.489-1.021-150.25-0.333-150.25-0.333l-0.953-6.4h-26.614v-7.057
	h204.636V165.035z"/>
<path fill="#231F20" d="M744.792,209.949c-0.425-24.083-4.942-47.534-4.988-47.768l15.969-0.675c0,0-4.361,23.596-3.926,48.319
	L744.792,209.949z"/>
<path fill="#231F20" d="M903.601,211.59l-7.051-0.273c1.562-40.272-4.527-48.799-4.527-48.799l15.402-0.186
	C907.402,162.43,905.118,172.481,903.601,211.59z"/>
<path fill="none" stroke="#231F20" stroke-width="3" stroke-miterlimit="10" d="M748.505,191.996
	c-0.002-0.478-0.186,84.145-0.186,84.145s-7.404-0.002-7.404,8.623"/>
<path fill="none" stroke="#231F20" stroke-width="3" stroke-miterlimit="10" d="M900.075,200.79l1.959,75.269
	c0,0,9.594-0.979,9.594,5.783"/>
<path fill="none" stroke="#231F20" stroke-width="1.9383" stroke-miterlimit="10" d="M744.71,230.664c0,0,140.31-0.785,160.244,0"/>
<line fill="none" stroke="#231F20" stroke-width="1.9601" stroke-miterlimit="10" x1="748.116" y1="230.664" x2="902.034" y2="167.94"/>
<line fill="none" stroke="#231F20" stroke-width="1.9601" stroke-miterlimit="10" x1="900.075" y1="230.314" x2="743.267" y2="167.94"/>
<circle fill="#231F20" cx="748.288" cy="282.9" r="6.674"/>
<circle fill="#231F20" cx="904.954" cy="282.822" r="6.674"/>
<g>
	<path fill="#FFFFFF" d="M838.734,137.426c-37.845,2.132-56.176,1.702-90.671,0.684c-2.532-25.181-2.02-53.394,0.464-78.542
		c29.957-0.934,85.457-0.001,91.281,1.53C840.277,67.101,841.5,87.773,838.734,137.426z"/>
</g>
<path fill="none" stroke="#FFFFFF" stroke-width="1.5681" stroke-miterlimit="10" d="M857.474,126.09c0,0-6.793,3.527-1.16,9.268
	C863.437,139.516,865.755,124.301,857.474,126.09z"/>
<path fill="#FFFFFF" d="M875.114,126.09c0,0-6.793,3.527-1.16,9.268C881.077,139.516,883.396,124.301,875.114,126.09z"/>
<g>
	<path fill="#1B1B17" d="M845.138,324.936l-11.728,45.248l5.509,1.422l3.03-11.707c4.201-0.9,11.093-2.234,15.496-2.541l4.068,10.24
		l5.292-2.102l-16.271-40.895L845.138,324.936z M843.545,353.748l4.923-18.969l6.79,17.062
		C851.433,352.246,846.941,353.061,843.545,353.748z"/>
	<path fill="#1B1B17" d="M878.742,324.785l-3.962-0.359l0.131,30.023l-0.615,16.748l2.29,0.533c2.483,0.576,4.704,0.85,6.666,0.816
		c2.767-0.047,5.013-0.705,6.798-1.973c2.295-1.627,3.648-4.143,4.015-7.471c0.236-2.111-0.358-4.111-1.733-5.781
		c-0.699-0.859-1.581-1.598-2.557-2.215c4.657-2.02,8.647-5.627,9.201-11.721C900.375,327.834,885.311,325.711,878.742,324.785z
		 M886.767,365.928c-0.948,0.668-2.852,1.264-6.609,0.693l0.33-8.908c2.775,0.525,6.127,1.602,7.445,3.219
		c0.408,0.488,0.545,0.947,0.479,1.537C888.142,364.951,887.104,365.684,886.767,365.928z M893.313,342.877
		c-0.602,6.604-8.431,8.238-12.719,8.645l-0.088-20.703C889.203,332.33,894.018,335.074,893.313,342.877z"/>
	<path fill="#1B1B17" d="M814.394,364.303c-0.271-10.809-1.046-34.164-2.603-37.699l-5.23,2.262c0.9,2.455,1.83,21.547,2.216,38.588
		l0.067,3.018l19.676-1.596l-0.46-5.68L814.394,364.303z"/>
	<path fill="#1B1B17" d="M918.3,349.539c-0.332-0.191-0.643-0.363-0.895-0.537l-0.575-0.363c-2.291-1.432-5.422-3.398-5.677-8.203
		c-0.209-3.902,4.649-4.57,5.437-4.666c0.977-0.172,4.312-0.344,5.595,4.652l5.515-1.428c-2.168-8.373-8.756-9.434-12.072-8.84
		c-3.762,0.434-10.553,3.16-10.155,10.578c0.408,7.76,5.763,11.115,8.327,12.729l0.508,0.322c0.348,0.217,0.733,0.441,1.148,0.688
		c2.676,1.545,4.568,2.908,4.479,6.314c-0.021,0.762-0.699,1.295-1.269,1.605c-1.514,0.83-3.721,0.877-4.992,0.092
		c-0.538-0.324-1.233-0.951-1.197-2.625l-5.701-0.141c-0.087,3.322,1.305,6.029,3.924,7.621c1.582,0.971,3.505,1.434,5.463,1.4
		c1.791-0.029,3.608-0.479,5.223-1.354c2.629-1.438,4.172-3.791,4.236-6.461C925.807,353.881,920.919,351.057,918.3,349.539z"/>
</g>
<path fill="#231F20" d="M756.849,80.681l-2.385-1.821l3.981-5.211l-3.966-3.793l2.074-2.168c5.303,4.332,5.905,5.648,5.905,5.648
	S761.591,74.843,756.849,80.681z"/>
<path fill="#FFFFFF" d="M608.855,131.047c0,0,4.917-35.41-10.833-48.928c-15.75-13.519-43.917-11.716-51.417,8.111
	c-7.5,19.828,0.168,42.801,0.168,42.801L608.855,131.047z"/>
<circle fill="#231F20" cx="565.791" cy="115.613" r="7.981"/>
<polygon fill="#231F20" points="569.022,129.768 563.439,129.768 562.355,119.268 569.439,119.352 "/>
<polygon fill="#231F20" points="497.812,192.356 648.26,187.463 650.195,223.758 626.652,229.721 628.195,268.758 606.195,271.258 
	596.032,239.998 560.918,241.699 555.508,280.211 528.509,279.639 525.679,234.148 500.64,231.561 "/>
<path fill="#FFFFFF" d="M553.82,191.535l54.238-1.142c0,0-5.952,12.125-22.369,12.375S557.369,196.926,553.82,191.535z"/>
<path fill="none" stroke="#FFFFFF" stroke-width="0.9005" stroke-miterlimit="10" d="M609.615,183.963
	c-2.424-0.057-3.145,1.567,0.314,3.112S612.039,184.021,609.615,183.963z"/>
<path fill="none" stroke="#FFFFFF" stroke-width="1.8623" stroke-miterlimit="10" d="M547.906,186.59c0,0,2.953,0.484,6.699-0.664"
	/>
<path fill="none" stroke="#FFFFFF" stroke-miterlimit="10" d="M595.502,175.506c0,0,6.021,3.296,11.396,1.841"/>
<path fill="none" stroke="#231F20" stroke-width="4" stroke-miterlimit="10" d="M565.791,119.613c0,0,0.021,60.045,24.386,118.693
	c24.364,58.65,138.252,27.938,165.551,25.746c27.299-2.188,78.967-21.162,74.006-118.658"/>
<path fill="none" stroke="#FFFFFF" stroke-width="3" stroke-miterlimit="10" d="M579.85,175.651
	c2.84,1.162,10.166,7.542,10.166,7.542"/>
<path fill="none" stroke="#FFFFFF" stroke-width="3" stroke-miterlimit="10" d="M582.023,184.676c0,0,2.738-8.365,4.418-10.564"/>
</svg>
