<?xml version="1.0" encoding="utf-8"?>
<!-- Generator: Adobe Illustrator 16.0.0, SVG Export Plug-In . SVG Version: 6.00 Build 0)  -->
<!DOCTYPE svg PUBLIC "-//W3C//DTD SVG 1.1//EN" "http://www.w3.org/Graphics/SVG/1.1/DTD/svg11.dtd">
<svg version="1.1" id="Layer_1" xmlns="http://www.w3.org/2000/svg" xmlns:xlink="http://www.w3.org/1999/xlink" x="0px" y="0px"
	 width="225px" height="225px" viewBox="0 -34.5 225 225" enable-background="new 0 -34.5 225 225" xml:space="preserve">
<path fill="#13160D" d="M134.656,84.609l-4.518-0.479c1.242-12.648-2.705-18.106-2.705-18.106l2.268-5.11l-5.016-1.569l-0.543-3.616
	l-22.679,4.277l0.605,3.171c-6.322,5.503-8.693,14.716-6.765,24.782l-5.309,1.504l2.676,11.506l6.361-0.682l1.344,11.041
	l7.291,0.902l1.459-12.115l6.606-0.203l2.649,10.576l7.78-1.217l0.242-12.746l8.916-2.158L134.656,84.609z"/>
<path fill="#13160D" stroke="#FFFFFF" stroke-width="3" stroke-miterlimit="10" d="M115.833,66.945
	c-0.188,0.005-0.382,0.016-0.575,0.031c-2.607,0.22-4.974,1.424-6.661,3.393c-1.686,1.963-2.494,4.453-2.278,7.007
	c0.448,5.257,5.175,9.229,10.566,8.765c2.611-0.22,4.979-1.425,6.67-3.394c1.684-1.962,2.492-4.45,2.276-7.001
	C125.398,70.673,121.009,66.809,115.833,66.945z"/>
<path fill="#A6E22E" d="M48.578,153.053c-0.742,0.264-1.465,0.508-2.493,0.617h-2.389c-1.614-0.156-2.508-0.584-3.447-1.035
	c-1.121-0.537-2.28-1.096-4.622-1.096c-1.712,0-2.542,0.572-3.346,1.131c-0.628,0.436-1.228,0.85-2.306,1h-1.641
	c-0.691-0.105-1.186-0.346-1.695-0.6c-0.835-0.412-1.694-0.844-3.347-0.734l0.086,12.119v14.715c0,0,0,5.941,5.943,5.941h2.64
	h12.135c-0.048,0,0.69,0,3.051,0c5.944,0,5.944-5.941,5.944-5.941v-13.789l0.061-13.045
	C50.879,152.227,49.711,152.648,48.578,153.053z"/>
<path fill="#13160D" d="M53.091,137.416H23.378c-1.745,0-2.378,1.422-2.378,2.377c0,1.246,0.725,1.924,1.487,2.211v37.162
	c0,2.363,1.429,6.834,6.834,6.834h17.826c5.406,0,6.835-4.471,6.835-6.834v-37.162c0.762-0.287,1.487-0.965,1.487-2.211
	C55.47,138.051,54.047,137.416,53.091,137.416z M53.092,140.389l-0.891,0.891v5.217h-4.757v1.336h4.757v3.646h-4.822
	c-0.247,0-0.446,0.199-0.446,0.445s0.199,0.445,0.446,0.445h4.822v3.582h-4.757v1.336h4.757v3.645h-4.822
	c-0.247,0-0.446,0.199-0.446,0.445c0,0.248,0.199,0.447,0.446,0.447h4.822v3.645h-4.757v1.336h4.757v12.357
	c-0.032,4.914-4.54,5.057-5.053,5.057h-3.051H29.322c-0.514,0-5.021-0.143-5.053-5.053v-37.889l-0.878-0.891
	c-0.61-0.02-0.61-0.438-0.61-0.596c0-0.271,0.104-0.596,0.597-0.596h29.713c0.272,0,0.598,0.105,0.598,0.596
	C53.689,139.951,53.689,140.369,53.092,140.389z"/>
<circle fill="#FFFFFF" cx="42.39" cy="153.672" r="3.123"/>
<circle fill="#FFFFFF" cx="40.765" cy="170.433" r="1.237"/>
<circle fill="#FFFFFF" cx="34.021" cy="163.249" r="2.147"/>
<circle fill="#FFFFFF" cx="38.188" cy="180.268" r="0.631"/>
<path fill="#A6E22E" d="M124.232,152.611c-0.955,0.332-1.857,0.648-3.615,0.455c-1.66-0.182-2.471-0.725-3.33-1.293
	c-0.961-0.641-1.955-1.303-4.043-1.303c-2.094,0-3.088,0.662-4.051,1.303c-0.861,0.572-1.671,1.111-3.334,1.293
	c-1.759,0.193-2.661-0.123-3.618-0.455c-1.007-0.354-2.051-0.717-4.009-0.5l0.146,11.115v15.941c0,0,0,5.941,5.943,5.941h2.641
	h12.134c-0.047,0,0.689,0,3.053,0c5.943,0,5.943-5.941,5.943-5.941v-10.484l0.146-16.572
	C126.283,151.896,125.24,152.262,124.232,152.611z"/>
<path fill="#13160D" d="M128.092,137.416H98.378c-1.745,0-2.378,1.422-2.378,2.377c0,1.246,0.725,1.924,1.487,2.211v37.162
	c0,2.363,1.429,6.834,6.833,6.834h17.829c5.406,0,6.834-4.471,6.834-6.834v-37.162c0.764-0.287,1.488-0.965,1.488-2.211
	C130.471,138.051,129.047,137.416,128.092,137.416z M128.092,140.389l-0.891,0.891v5.217h-4.822v1.336h4.822v3.646h-4.822
	c-0.246,0-0.445,0.199-0.445,0.445s0.199,0.445,0.445,0.445h4.822v3.582h-4.822v1.336h4.822v3.645h-4.822
	c-0.246,0-0.445,0.199-0.445,0.445c0,0.248,0.199,0.447,0.445,0.447h4.822v3.645h-4.822v1.336h4.822v12.357
	c-0.033,4.914-4.539,5.057-5.053,5.057h-3.053H104.32c-0.514,0-5.02-0.143-5.052-5.053v-37.889l-0.878-0.891
	c-0.61-0.02-0.61-0.438-0.61-0.596c0-0.271,0.104-0.596,0.597-0.596h29.7c0.608,0.02,0.608,0.439,0.608,0.596
	C128.686,139.949,128.688,140.369,128.092,140.389z"/>
<circle fill="#FFFFFF" cx="106.419" cy="157.979" r="3.123"/>
<circle fill="#FFFFFF" cx="117.398" cy="172.585" r="1.423"/>
<circle fill="#FFFFFF" cx="111.646" cy="167.544" r="2.103"/>
<circle fill="#FFFFFF" cx="113.791" cy="178.781" r="0.557"/>
<path fill="#A6E22E" d="M199.799,152.572c-0.797,0.4-1.547,0.777-3.051,0.727c-1.475-0.055-2.199-0.496-2.965-0.961
	c-0.844-0.518-1.719-1.053-3.486-1.053c-2.229,0-3.342,0.521-4.42,1.025c-1.021,0.48-1.984,0.934-3.957,0.984
	c-2.002,0.053-2.994-0.332-4.043-0.744c-1.086-0.426-2.221-0.867-4.395-0.805l-0.023,1.92h-0.08v25.496c0,0,0,5.941,5.943,5.941
	h2.639h12.135c-0.047,0,0.691,0,3.053,0c5.943,0,5.943-5.941,5.943-5.941v-18.75l0.188-8.666
	C201.551,151.689,200.658,152.139,199.799,152.572z"/>
<path fill="#13160D" d="M203.092,137.416h-29.713c-1.746,0-2.379,1.422-2.379,2.377c0,1.246,0.725,1.924,1.488,2.211v37.162
	c0,2.363,1.428,6.834,6.834,6.834h17.826c5.406,0,6.834-4.471,6.834-6.834v-37.162c0.764-0.287,1.488-0.965,1.488-2.211
	C205.471,138.051,204.047,137.416,203.092,137.416z M203.092,140.389l-0.891,0.891v5.217h-4.822v1.336h4.822v3.646h-4.822
	c-0.246,0-0.445,0.199-0.445,0.445s0.199,0.445,0.445,0.445h4.822v3.582h-4.822v1.336h4.822v3.645h-4.822
	c-0.246,0-0.445,0.199-0.445,0.445c0,0.248,0.199,0.447,0.445,0.447h4.822v3.645h-4.822v1.336h4.822v12.357
	c-0.033,4.914-4.539,5.057-5.053,5.057h-3.053h-14.773c-0.516,0-5.021-0.143-5.053-5.053v-37.889l-0.879-0.891
	c-0.609-0.02-0.609-0.438-0.609-0.596c0-0.271,0.104-0.596,0.598-0.596h29.699c0.609,0.02,0.609,0.439,0.609,0.596
	C203.688,139.949,203.688,140.369,203.092,140.389z"/>
<circle fill="#FFFFFF" cx="189.266" cy="153.672" r="3.123"/>
<path fill="#FFFFFF" d="M193.369,165.586c1.082,0,1.957,0.875,1.957,1.957c0,1.086-0.875,1.961-1.957,1.961
	c-1.084,0-1.961-0.875-1.961-1.961C191.408,166.461,192.287,165.586,193.369,165.586z"/>
<circle fill="#FFFFFF" cx="182.102" cy="162.6" r="2.174"/>
<circle fill="#FFFFFF" cx="187.479" cy="173.921" r="1.335"/>
<circle fill="#FFFFFF" cx="191.316" cy="179.297" r="1.074"/>
<path fill="#A6E22E" d="M199.445,78.377c-1.012-0.393-2.053-0.802-4.061-0.668c-1.949,0.128-2.979,0.72-3.883,1.243
	c-0.926,0.532-1.8,1.036-3.648,1.036c-1.744,0-2.53-0.479-3.44-1.031c-0.864-0.525-1.843-1.119-3.704-1.249
	c-1.911-0.13-2.913,0.277-3.879,0.67c-0.913,0.373-1.771,0.728-3.48,0.606l0.03,25.182c0,0,0,5.941,5.943,5.941h2.64H194.1
	c-0.05,0,0.688,0,3.051,0c5.943,0,5.943-5.941,5.943-5.941V89.045l0.027-10.059C201.312,79.109,200.406,78.751,199.445,78.377z"/>
<path fill="#13160D" d="M203.092,62.417h-29.713c-1.745,0-2.379,1.42-2.379,2.376c0,1.245,0.725,1.924,1.488,2.211v37.162
	c0,2.363,1.428,6.834,6.834,6.834h17.826c5.406,0,6.834-4.471,6.834-6.834V67.004c0.764-0.287,1.488-0.966,1.488-2.211
	C205.471,63.05,204.048,62.417,203.092,62.417z M203.092,65.389l-0.891,0.891v5.215h-4.821v1.336h4.821v3.646h-4.821
	c-0.246,0-0.444,0.199-0.444,0.446c0,0.246,0.198,0.445,0.444,0.445h4.821v3.582h-4.821v1.336h4.821v3.646h-4.821
	c-0.246,0-0.444,0.198-0.444,0.446c0,0.246,0.198,0.444,0.444,0.444h4.821v3.646h-4.821v1.336h4.821v12.359
	c-0.032,4.912-4.538,5.055-5.053,5.055h-3.053h-14.773c-0.516,0-5.021-0.143-5.053-5.053V66.279l-0.879-0.891
	c-0.608-0.019-0.608-0.438-0.608-0.596c0-0.271,0.104-0.594,0.597-0.594h29.713c0.271,0,0.598,0.103,0.598,0.594
	C203.688,64.951,203.688,65.37,203.092,65.389z"/>
<circle fill="#FFFFFF" cx="190.245" cy="85.126" r="3.124"/>
<circle fill="#FFFFFF" cx="190.245" cy="100.536" r="0.978"/>
<circle fill="#FFFFFF" cx="185.363" cy="93.284" r="2.147"/>
<g>
	<path fill="#13160D" d="M181.009-25.293l-4.604,16.614l2.022,0.56l1.191-4.299c1.555-0.307,4.104-0.756,5.729-0.843l1.438,3.803
		l1.965-0.743l-5.747-15.182L181.009-25.293z M180.243-14.677l1.933-6.963l2.398,6.333C183.161-15.182,181.5-14.909,180.243-14.677z
		"/>
	<path fill="#13160D" d="M193.402-25.139l-1.459-0.159l-0.137,11.073l-0.332,6.172l0.842,0.21c0.912,0.229,1.73,0.343,2.453,0.343
		c1.021,0,1.854-0.229,2.521-0.685c0.857-0.587,1.37-1.505,1.527-2.732c0.099-0.776-0.108-1.517-0.604-2.141
		c-0.253-0.322-0.573-0.598-0.93-0.833c1.731-0.715,3.224-2.021,3.466-4.264C201.359-23.882,195.818-24.758,193.402-25.139z
		 M196.105-9.919c-0.353,0.241-1.058,0.449-2.44,0.216l0.176-3.284c1.021,0.211,2.252,0.63,2.728,1.233
		c0.146,0.183,0.195,0.354,0.166,0.571C196.62-10.271,196.232-10.006,196.105-9.919z M198.662-18.378
		c-0.262,2.431-3.16,2.986-4.744,3.108l0.096-7.634C197.214-22.293,198.971-21.251,198.662-18.378z"/>
	<path fill="#13160D" d="M169.43-10.964c-0.035-3.988-0.176-12.606-0.729-13.918l-1.942,0.802c0.317,0.909,0.543,7.956,0.578,14.243
		l0.006,1.112l7.267-0.466l-0.135-2.096L169.43-10.964z"/>
	<path fill="#13160D" d="M207.837-15.766c-0.123-0.073-0.235-0.139-0.328-0.205l-0.21-0.137c-0.835-0.542-1.979-1.287-2.043-3.06
		c-0.053-1.44,1.743-1.655,2.032-1.686c0.362-0.057,1.593-0.101,2.035,1.75l2.042-0.492c-0.747-3.1-3.17-3.533-4.396-3.333
		c-1.391,0.136-3.91,1.1-3.812,3.837c0.102,2.864,2.058,4.135,2.993,4.746l0.186,0.121c0.125,0.082,0.266,0.167,0.419,0.26
		c0.978,0.587,1.667,1.101,1.612,2.357c-0.012,0.28-0.266,0.472-0.479,0.583c-0.562,0.297-1.375,0.3-1.841,0.003
		c-0.196-0.123-0.45-0.358-0.425-0.974l-2.1-0.088c-0.053,1.225,0.444,2.232,1.399,2.835c0.577,0.367,1.285,0.551,2.007,0.551
		c0.661,0,1.334-0.155,1.934-0.468c0.979-0.513,1.562-1.372,1.602-2.356C210.576-14.12,208.792-15.19,207.837-15.766z"/>
</g>
<g>
	<path fill="#13160D" d="M98.711-25.398c-0.966,0.29-2.409,0.509-3.908,0.676c-0.002-0.135-0.004-0.227-0.005-0.262l-2.013,0.045
		c0,0.013,0.003,0.16,0.009,0.409c-2.265,0.185-4.208,0.254-4.245,0.255l0.068,2.013c0.151-0.005,2.003-0.071,4.215-0.25
		c0.07,3.956,0.172,11.542-0.042,13.407l2.001,0.229c0.232-2.023,0.124-9.874,0.052-13.826c1.667-0.182,3.319-0.43,4.445-0.769
		L98.711-25.398z"/>
	<path fill="#13160D" d="M110.871-13.552l-0.408-1.627c-0.237,0.059-0.481,0.112-0.73,0.16l-3.566-10.315l-1.79,0.019
		c-0.1,0.31-1.751,5.494-2.473,10.604c-0.308-0.021-0.492-0.038-0.502-0.038l-0.156,1.67c0.035,0.002,0.204,0.018,0.458,0.037
		c-0.159,1.649-0.191,3.234-0.005,4.577l1.87-0.26c-0.169-1.218-0.132-2.685,0.022-4.228c0.354,0.009,0.729,0.016,1.133,0.016
		c1.12,0,2.397-0.057,3.662-0.198l1.348,3.9l1.784-0.617l-1.239-3.583C110.476-13.476,110.681-13.504,110.871-13.552z M103.8-14.629
		c0.389-2.643,1.034-5.334,1.555-7.274l2.472,7.149C106.396-14.619,104.957-14.603,103.8-14.629z"/>
	<polygon fill="#13160D" points="114.715,-23.084 115.079,-23.101 115.721,-23.14 	"/>
	<path fill="#13160D" d="M119.664-23.68c-1.246-0.061-2.328,0.322-3.225,1.138c-0.24,0.218-0.455,0.463-0.648,0.722
		c-0.04-0.738-0.066-1.233-0.07-1.309l-0.643,0.029l-1.369,0.083c0.01,0.175,0.141,2.473,0.262,5.156
		c0.141,3.107,0.201,4.823,0.188,8.215l2.015,0.007c0.01-2.823-0.029-4.508-0.124-6.758c0.052-0.934,0.453-3.483,1.742-4.657
		c0.495-0.448,1.079-0.649,1.772-0.616c0.443,0.021,0.8,0.205,1.121,0.578c1.34,1.556,1.756,5.933,1.146,12.011l2.003,0.203
		c0.695-6.917,0.15-11.468-1.622-13.527C121.536-23.19,120.654-23.631,119.664-23.68z"/>
	<path fill="#13160D" d="M130.466-15.125l6.925-4.343l-1.07-1.706l-6.627,4.157c0.137-3.981,0.233-8.117,0.252-8.921l-2.014-0.047
		c-0.136,5.895-0.42,15.129-0.646,16.41l1.982,0.353c0.096-0.548,0.192-2.114,0.28-4.082c3.259,2.34,4.029,3.895,4.037,3.913
		l1.841-0.821C135.324-10.442,134.398-12.362,130.466-15.125z"/>
</g>
<g>
	<polygon fill="#13160D" points="19.764,-11.855 19.148,-25.401 17.294,-25.316 17.995,-9.893 25.425,-10.324 25.317,-12.176 	"/>
	<path fill="#13160D" d="M31.109-24.075l0.002,0.034c-2.04,0.276-4.258,2.471-4.444,5.532c-0.169,2.779-0.425,6.979,3.864,8.077
		c0.333,0.086,0.663,0.128,0.986,0.128c0.777,0,1.518-0.245,2.181-0.728c2.292-1.669,3.011-5.607,3.095-6.983
		c0.087-1.438-0.652-3.125-1.93-4.403C33.737-23.547,32.37-24.15,31.109-24.075z M32.606-12.532
		c-0.496,0.361-1.006,0.457-1.614,0.302c-2.602-0.666-2.666-2.976-2.472-6.166c0.14-2.324,1.872-3.808,3.009-3.817
		c0.653,0.067,1.374,0.458,2.021,1.106c0.886,0.887,1.444,2.084,1.391,2.979C34.841-16.484,34.029-13.569,32.606-12.532z"/>
	<path fill="#13160D" d="M48.01-16.042l-5.607,0.446l0.147,1.85l3.994-0.317c0.002,0.657-0.236,1.317-0.687,1.857
		c-0.488,0.585-1.047,0.812-1.38,0.777c-0.751-0.077-1.705-0.26-2.419-0.994c-0.945-0.97-1.295-2.707-1.042-5.163
		c0.535-5.177,3.476-5.029,3.775-4.996l1.99,0.305l0.281-1.835l-2.012-0.307c-0.074-0.01-1.761-0.207-3.337,1.043
		c-1.418,1.125-2.274,3.009-2.542,5.599c-0.313,3.029,0.211,5.267,1.56,6.649c1.144,1.172,2.578,1.443,3.557,1.544
		c0.087,0.009,0.175,0.013,0.264,0.013c0.96,0,1.963-0.527,2.732-1.447c1.017-1.218,1.368-2.825,0.94-4.299L48.01-16.042z"/>
	<path fill="#13160D" d="M57.823-11.509c-0.799,0.016-1.63,0.026-2.418,0.03c-0.078-3.578-0.15-8.008-0.148-10.714
		c1.175-0.019,2.125-0.047,2.213-0.05l-0.055-1.855c-0.021,0-0.962,0.028-2.134,0.048c0.009-0.253,0.02-0.448,0.035-0.538
		l-1.819-0.364c-0.03,0.147-0.05,0.469-0.065,0.921c-0.992,0.001-1.915-0.013-2.408-0.062l-0.188,1.846
		c0.533,0.054,1.468,0.072,2.471,0.072c0.033,0,0.066,0,0.099,0c-0.009,3.092,0.084,7.94,0.144,10.693
		c-1.003-0.012-1.753-0.039-1.968-0.086l-0.485,1.792c0.46,0.125,2.027,0.159,3.615,0.159c1.19,0,2.394-0.02,3.15-0.035
		L57.823-11.509z"/>
</g>
<path fill="none" stroke="#13160D" stroke-miterlimit="10" d="M38.362,62.58l2.646-13.583"/>
<circle fill="#FFFFFF" stroke="#13160D" stroke-width="2" stroke-miterlimit="10" cx="41.775" cy="46.439" r="2.558"/>
<path fill="#13160D" d="M23.192,105.812c0,0,1.722,3.143,2.91,4.031c0.228,0.172,1.336,0.26,2.977,0.287l2.763,2.402l3.05-2.471
	c0,0,0,0,0.001,0l2.879,2.145l2.457-2.018l3.476,1.693l2.576-2.365l2.622,1.4l1.255-1.695c1.65-0.148,2.739-0.293,2.889-0.404
	c0.764-0.572,1.125-3.609,1.125-3.609L23.192,105.812z"/>
<path fill="#13160D" d="M37.982,63.424c-7.271-0.484-11.817,2.783-14.618,7.61l-2.57-1.727l0.86-1.382l-1.698-1.057l-2.21,3.552
	l1.698,1.057l0.822-1.32l2.618,1.758C16.913,83.427,19.87,102.5,19.87,102.5h37.22C57.477,82.501,58.478,67.131,37.982,63.424z
	 M33.861,99.037c-2.996,0-5.425-2.623-5.425-5.857c0-3.23,2.429-5.854,5.425-5.854c2.997,0,5.426,2.623,5.426,5.854
	C39.288,96.414,36.858,99.037,33.861,99.037z M47.781,99.037c-2.998,0-5.426-2.623-5.426-5.857c0-3.23,2.429-5.854,5.426-5.854
	c2.997,0,5.425,2.623,5.425,5.854C53.206,96.414,50.777,99.037,47.781,99.037z"/>
<path fill="none" d="M33.092,87.373c-0.786,0.072-1.848,0.541-2.5,1.021c-0.705,0.521-0.894,1.418-1.262,2.162
	c-0.966,1.953-1.151,5.191,0.76,6.701c1.543,1.219,3.307,2.01,5.381,1.637c1.129-0.203,1.843-1.172,2.449-2.105
	c1.778-2.754,1.605-7.816-2.125-8.842c-1.224-0.336-2.82-0.764-3.999,0.004"/>
<polygon fill="#FFFFFF" stroke="#13160D" stroke-width="2" stroke-miterlimit="10" points="34.088,60.535 32.199,66.939 
	44.334,67.276 43.172,62.423 "/>
</svg>
