<?xml version="1.0" encoding="utf-8"?>
<!-- Generator: Adobe Illustrator 16.0.0, SVG Export Plug-In . SVG Version: 6.00 Build 0)  -->
<!DOCTYPE svg PUBLIC "-//W3C//DTD SVG 1.1//EN" "http://www.w3.org/Graphics/SVG/1.1/DTD/svg11.dtd">
<svg version="1.1" id="Layer_1" xmlns="http://www.w3.org/2000/svg" xmlns:xlink="http://www.w3.org/1999/xlink" x="0px" y="0px"
	 width="225px" height="272px" viewBox="0 0 225 272" enable-background="new 0 0 225 272" xml:space="preserve">
<path fill="#A6E22E" stroke="#252625" stroke-width="4" stroke-miterlimit="10" d="M194.357,142.499
	c10.902-58.475-5.127-85.539-5.127-85.539l12.574-22.916l-22.324-5.823l-1.254-20.616L71.653,18.323l1.511,15.033
	C41.681,56.454,26.969,98.464,31.763,146.173L6.611,151.04l7.678,54.744l29.681-0.604l1.684,52.041L79,264.396l12.622-60.393
	l28.836,0.775l8.785,55.854l36.475-2.52l6.31-59.351l42.117-6.438l0.905-45.749L194.357,142.499z M138.074,143.508
	c-24.801,2.495-46.94-15.589-49.435-40.391c-2.49-24.813,15.588-46.937,40.393-49.427c24.806-2.492,46.931,15.578,49.431,40.39
	C180.962,118.884,162.881,141.014,138.074,143.508z"/>
<rect x="114.77" y="76.509" fill="#FFFFFF" stroke="#252625" stroke-width="4" stroke-miterlimit="10" width="10.422" height="44.148"/>
<rect x="142.359" y="76.509" fill="#FFFFFF" stroke="#252625" stroke-width="4" stroke-miterlimit="10" width="11.037" height="44.148"/>
</svg>
