<?xml version="1.0" encoding="utf-8"?>
<!-- Generator: Adobe Illustrator 16.0.0, SVG Export Plug-In . SVG Version: 6.00 Build 0)  -->
<!DOCTYPE svg PUBLIC "-//W3C//DTD SVG 1.1//EN" "http://www.w3.org/Graphics/SVG/1.1/DTD/svg11.dtd">
<svg version="1.1" id="Layer_1" xmlns="http://www.w3.org/2000/svg" xmlns:xlink="http://www.w3.org/1999/xlink" x="0px" y="0px"
	 width="200px" height="1000px" viewBox="0.5 0.5 200 1000" enable-background="new 0.5 0.5 200 1000" xml:space="preserve">
<path opacity="0.9" fill="#262422" d="M132.277,106.649c7.33-42.058-3.452-61.524-3.452-61.524l8.458-16.48l-15.018-4.189
	l-0.746-13.113l-71.584,7.99l0.829,8.817c-21.178,16.613-31.07,46.829-27.848,81.146L6,112.793l5.166,39.377l19.96-0.434
	l1.133,37.43l22.942,2.631c0,0,9.456-40.867,9.084-40.875c-0.37-0.006,18.285,0.526,18.285,0.526l5.908,40.175l24.53-1.816
	l4.243-42.685l28.326-4.631l0.607-32.905C146.167,109.59,132.277,106.649,132.277,106.649z M94.417,107.375
	c-16.68,1.794-31.571-11.212-33.248-29.049c-1.674-17.85,10.484-33.761,27.168-35.552c16.683-1.792,31.563,11.204,33.245,29.05
	C123.266,89.666,111.104,105.579,94.417,107.375z"/>
<path opacity="0.9" fill="#262422" d="M88.736,47.779c-14.097,1.514-24.371,14.96-22.957,30.043
	c1.417,15.072,14,26.062,28.096,24.547c14.101-1.518,24.378-14.965,22.956-30.041C115.411,57.248,102.835,46.265,88.736,47.779z"/>
<path opacity="0.9" fill="#262422" d="M132.641,303.029c2.623-42.611-10.254-60.762-10.254-60.762l6.578-17.317l-15.389-2.498
	l-2.196-12.95l-70.257,15.88l1.801,8.671c-19.205,18.859-25.685,49.986-18.677,83.733L7.824,323.14l9.501,38.561l19.789-2.645
	l5.277,37.073l23.092,0.07c0,0,4.864-41.664,4.495-41.63c-0.368,0.035,18.231-1.505,18.231-1.505l10.327,39.272l24.178-4.526
	l-0.517-42.892l27.638-7.744l-3.046-32.77C146.771,304.411,132.641,303.029,132.641,303.029z M95.096,307.949
	c-16.379,3.633-32.621-7.641-36.266-25.182c-3.643-17.554,6.675-34.715,23.059-38.346c16.379-3.631,32.611,7.634,36.262,25.184
	C121.802,287.149,111.479,304.313,95.096,307.949z"/>
<path opacity="0.9" fill="#262422" d="M132.641,503.029c2.623-42.611-10.254-60.762-10.254-60.762l6.578-17.317l-15.389-2.498
	l-2.196-12.95l-70.257,15.88l1.801,8.671c-19.205,18.859-25.685,49.986-18.677,83.733l-16.423,5.354l9.501,38.561l19.789-2.646
	l5.277,37.073l23.092,0.07c0,0,4.864-41.664,4.495-41.63c-0.368,0.035,18.23-1.506,18.23-1.506l10.329,39.272l24.178-4.525
	l-0.517-42.893l27.638-7.744l-3.046-32.77C146.771,504.411,132.641,503.029,132.641,503.029z M95.096,507.949
	c-16.379,3.633-32.621-7.641-36.266-25.182c-3.643-17.554,6.675-34.715,23.059-38.346c16.379-3.631,32.611,7.634,36.262,25.184
	C121.802,487.149,111.479,504.312,95.096,507.949z"/>
<path opacity="0.9" fill="#262422" d="M132.641,703.029c2.623-42.611-10.254-60.764-10.254-60.764l6.578-17.316l-15.389-2.498
	l-2.196-12.95l-70.257,15.88l1.801,8.671c-19.204,18.86-25.685,49.987-18.676,83.734l-16.424,5.354l9.501,38.562l19.789-2.645
	l5.277,37.071l23.092,0.07c0,0,4.864-41.664,4.495-41.632c-0.368,0.035,18.23-1.504,18.23-1.504l10.328,39.271l24.178-4.526
	l-0.517-42.892l27.638-7.744l-3.046-32.771C146.771,704.41,132.641,703.029,132.641,703.029z M95.096,707.949
	c-16.379,3.633-32.621-7.642-36.266-25.184c-3.643-17.554,6.675-34.716,23.059-38.346c16.379-3.631,32.611,7.634,36.262,25.184
	C121.802,687.148,111.479,704.312,95.096,707.949z"/>
<path opacity="0.9" fill="#262422" d="M132.641,903.029c2.623-42.611-10.254-60.764-10.254-60.764l6.578-17.316l-15.389-2.498
	l-2.196-12.949l-70.257,15.88l1.801,8.671c-19.205,18.859-25.685,49.986-18.677,83.733l-16.423,5.354l9.501,38.562l19.789-2.645
	l5.277,37.071l23.092,0.07c0,0,4.864-41.664,4.495-41.632c-0.368,0.035,18.231-1.504,18.231-1.504l10.328,39.271l24.178-4.526
	l-0.517-42.892l27.638-7.744l-3.046-32.771C146.771,904.41,132.641,903.029,132.641,903.029z M95.096,907.949
	c-16.379,3.633-32.621-7.642-36.266-25.184c-3.643-17.554,6.675-34.716,23.059-38.346c16.379-3.631,32.611,7.634,36.262,25.184
	C121.802,887.148,111.479,904.312,95.096,907.949z"/>
<path opacity="0.9" fill="#262422" d="M82.84,249.351c-13.843,3.068-22.562,17.571-19.483,32.404
	c3.08,14.822,16.804,24.349,30.645,21.279c13.846-3.072,22.566-17.576,19.482-32.402C110.4,255.803,96.684,246.282,82.84,249.351z"
	/>
<path opacity="0.9" fill="#262422" d="M82.84,449.351c-13.842,3.068-22.562,17.571-19.483,32.404
	c3.08,14.822,16.804,24.349,30.645,21.279c13.846-3.072,22.566-17.576,19.482-32.402C110.4,455.803,96.684,446.282,82.84,449.351z"
	/>
<path opacity="0.9" fill="#262422" d="M149.484,490.418c2.147-6.678,2.986-13.651,2.51-20.728
	c-0.779-11.358-4.854-21.767-11.785-30.104l4.336-4.54c7.852,9.441,12.463,21.235,13.344,34.107
	c0.545,8.003-0.412,15.914-2.837,23.489L149.484,490.418z"/>
<path opacity="0.9" fill="#262422" d="M82.84,649.352c-13.843,3.066-22.562,17.57-19.483,32.402
	c3.08,14.822,16.804,24.35,30.645,21.279c13.846-3.071,22.566-17.576,19.482-32.401C110.4,655.804,96.684,646.281,82.84,649.352z"/>
<path opacity="0.9" fill="#262422" d="M164.488,697.51c3.16-9.404,4.423-19.271,3.73-29.301
	c-1.059-15.424-6.843-30.11-16.289-41.357l4.311-4.57c10.369,12.345,16.719,28.464,17.878,45.389
	c0.755,11.009-0.628,21.83-4.103,32.162L164.488,697.51z"/>
<path opacity="0.9" fill="#262422" d="M149.484,690.418c2.147-6.678,2.986-13.649,2.51-20.729
	c-0.779-11.357-4.854-21.767-11.785-30.104l4.336-4.54c7.852,9.44,12.463,21.235,13.344,34.106
	c0.545,8.004-0.412,15.914-2.837,23.489L149.484,690.418z"/>
<path opacity="0.9" fill="#262422" d="M82.84,849.352c-13.843,3.066-22.562,17.57-19.483,32.402
	c3.08,14.822,16.804,24.35,30.645,21.279c13.846-3.071,22.566-17.576,19.482-32.401C110.4,855.804,96.684,846.281,82.84,849.352z"/>
<path opacity="0.9" fill="#262422" d="M178.58,907.124c4.861-12.874,6.843-26.454,5.888-40.394
	c-1.407-20.533-9.336-39.84-22.313-54.372l4.181-4.712c13.983,15.645,22.522,36.438,24.031,58.543
	c1.01,14.803-1.177,29.843-6.339,43.502L178.58,907.124z"/>
<path opacity="0.9" fill="#262422" d="M164.488,897.51c3.16-9.404,4.423-19.271,3.73-29.301
	c-1.059-15.424-6.843-30.11-16.289-41.357l4.311-4.569c10.369,12.346,16.719,28.464,17.878,45.389
	c0.755,11.008-0.628,21.83-4.103,32.162L164.488,897.51z"/>
<path opacity="0.9" fill="#262422" d="M149.484,890.418c2.147-6.678,2.986-13.649,2.51-20.729
	c-0.779-11.357-4.854-21.767-11.785-30.104l4.336-4.54c7.852,9.44,12.463,21.235,13.344,34.106
	c0.545,8.004-0.412,15.914-2.837,23.489L149.484,890.418z"/>
</svg>
